<?xml version="1.0" encoding="UTF-8"?>
<!DOCTYPE svg PUBLIC "-//W3C//DTD SVG 1.1//EN" "http://www.w3.org/Graphics/SVG/1.1/DTD/svg11.dtd">
<!-- Creator: CorelDRAW -->
<svg xmlns="http://www.w3.org/2000/svg" xml:space="preserve" width="1.70666in" height="1.70666in" version="1.1" style="shape-rendering:geometricPrecision; text-rendering:geometricPrecision; image-rendering:optimizeQuality; fill-rule:evenodd; clip-rule:evenodd"
viewBox="0 0 1707 1707"
 xmlns:xlink="http://www.w3.org/1999/xlink">
 <defs>
  <style type="text/css">
   <![CDATA[
    .fil0 {fill:black}
   ]]>
  </style>
 </defs>
 <g id="Layer_x0020_1">
  <metadata id="CorelCorpID_0Corel-Layer"/>
  <g>
   <path class="fil0" d="M736 354l0 -293c-299,13 -539,272 -539,589 0,261 190,442 196,996l523 0 0 -93c0,-88 68,-157 153,-157l230 0c37,0 68,-27 73,-63l-183 0c-57,0 -106,-49 -106,-107 0,-57 48,-103 106,-103l184 0 0 -143c0,-17 13,-31 30,-30 85,3 102,-16 105,-22 28,-57 -179,-248 -185,-332 -25,-288 -252,-515 -527,-534l0 292c46,13 80,54 80,103 0,60 -50,110 -110,110 -59,0 -110,-50 -110,-110 0,-49 34,-90 80,-103zm29 -353c156,1 303,61 418,171 115,109 186,258 200,419 2,63 232,259 178,364 -22,44 -79,54 -128,55l0 313c0,74 -60,134 -134,134l-230 0c-52,0 -93,42 -93,96l0 123c0,17 -13,30 -30,30l-583 0c-16,0 -30,-13 -30,-30 0,-571 -196,-741 -196,-1026 0,-359 281,-651 628,-649zm424 1182c-64,0 -58,90 0,90l184 0 0 -90 -184 0zm-326 -303c-68,0 -124,-46 -137,-110l-73 0c-39,0 -39,-60 0,-60 30,0 83,-2 108,1 13,5 22,15 22,29 0,45 35,80 80,80 43,0 80,-37 80,-80 0,-43 -37,-80 -80,-80 -40,0 -40,-60 0,-60 77,0 140,63 140,140 0,77 -63,140 -140,140zm-80 -140l0 0 0 0zm-206 30c-17,0 -44,-1 -44,-30 0,-41 74,-41 74,0 0,17 -14,30 -30,30zm492 -280c44,0 80,-36 80,-80 0,-43 -36,-80 -80,-80 -43,0 -79,37 -79,80 0,40 -60,40 -60,0 0,-77 62,-140 139,-140 78,0 140,63 140,140 0,67 -47,123 -110,137l0 70c0,39 -59,39 -59,0l0 -97c0,-16 13,-30 29,-30zm0 250c-40,0 -40,-73 0,-73 41,0 41,73 0,73zm-636 -193c-63,-14 -110,-70 -110,-137 0,-77 63,-140 140,-140 130,0 178,170 110,170 -16,0 -30,-13 -30,-30 0,-43 -36,-80 -80,-80 -43,0 -80,37 -80,80 0,44 37,80 80,80 17,0 30,14 30,31l0 96c0,39 -60,39 -60,0l0 -70zm30 193c-40,0 -40,-73 0,-73 41,0 41,73 0,73zm303 -330c-68,0 -62,97 0,97 63,0 69,-97 0,-97z"/>
  </g>
 </g>
</svg>
