<?xml version="1.0" encoding="UTF-8"?>
<svg xmlns="http://www.w3.org/2000/svg" viewBox="0 0 1080 1080">
  <defs>
    <style>
      .cls-1, .cls-2, .cls-3, .cls-4 {
        fill: #fdf5e0;
      }

      .cls-1, .cls-2, .cls-5, .cls-6, .cls-7, .cls-8, .cls-4, .cls-9, .cls-10 {
        stroke-miterlimit: 10;
      }

      .cls-1, .cls-2, .cls-6, .cls-8, .cls-4, .cls-9, .cls-10 {
        stroke: #3474b2;
      }

      .cls-1, .cls-8 {
        stroke-width: .8px;
      }

      .cls-2, .cls-10 {
        stroke-width: 1.28px;
      }

      .cls-11 {
        fill: #489ebf;
      }

      .cls-12, .cls-10 {
        fill: #fdf2d4;
      }

      .cls-13, .cls-6 {
        fill: #153961;
      }

      .cls-14 {
        fill: #ee7f31;
      }

      .cls-5 {
        stroke: #153961;
      }

      .cls-5, .cls-6 {
        stroke-linecap: round;
        stroke-width: 14.4px;
      }

      .cls-5, .cls-7, .cls-8, .cls-9 {
        fill: none;
      }

      .cls-15 {
        fill: #d44548;
      }

      .cls-7 {
        stroke: #000;
        stroke-width: .64px;
      }

      .cls-16 {
        fill: #e8a356;
      }

      .cls-17 {
        fill: #53b5e0;
      }

      .cls-18 {
        fill: #3474b2;
      }

      .cls-19 {
        fill: #cb3529;
      }
    </style>
  </defs>
  <g id="Calque_1">
    <g>
      <path class="cls-11" d="M187.8,440.22s.17-4.45-1.89-6.34c-2.24-2.06-7.56-2.24-7.56-2.24,0,0-9.77-.34-15.95-.34-7.54,0-19.21.34-19.21.34,0,0-2.92,0-4.64.86-1.72.85-3.77,3.77-3.77,3.77-7.54,11.33-15.61,21.96-22.3,30.54,0,0-2.75,4.64-5.49,4.64-2.58,0-5.49-3.95-5.49-3.95,0,0-6.86-9.6-11.5-15.78-4.47-6-11.5-15.44-11.5-15.44,0,0-1.55-2.4-2.91-3.26-1.37-.85-4.3-1.37-4.3-1.37,0,0-12.01-.68-19.55-.68-8.24,0-21.28.68-21.28.68,0,0-3.94,0-5.49,1.55s-1.37,5.32-1.37,5.32c0,0-.51,31.57-.51,51.82s.86,53.17.86,53.17c0,0-.18,3.09,1.72,4.64,1.19,1.03,4.96,1.03,4.96,1.03,0,0,10.82.68,17.68.68,6.17,0,15.78-.51,15.78-.51,0,0,4.98.17,7.03-1.55,1.55-1.37,1.2-4.11,1.2-4.11l-.17-14.42s-.52-4.45,2.23-4.45c2.57,0,4.28,2.06,4.64,2.91,4.28,6.86,7.37,11.84,14.4,22.47,0,0,3.94,5.15,7.37,5.15,3.6,0,7.56-5.49,7.56-5.49l15.95-21.1c1.72-2.23,3.6-4.98,6.17-3.77,2.58,1.19,2.07,5.66,2.07,5.66v13.04s-.17,3.25,1.55,4.62c1.36,1.03,7.2,1.03,7.2,1.03,0,0,12.69.85,20.76.85s20.06-1.02,20.06-1.02c0,0,3.09,0,4.3-1.2,1.38-1.38,1.38-4.81,1.38-4.81,0,0,.51-32.07.51-54.03,0-19.04-.51-48.9-.51-48.9Z"/>
      <path class="cls-13" d="M272.07,485.63c-.54-.22-1.06-.35-1.56-.37h-.17c-2.84.09-5.29,5.19-5.53,11.51-.25,6.47,2.13,10.8,4.83,11.9,3.25,1.34,7.03-.96,8.84-4.91.04-.1.09-.21.12-.31.67-1.55,1.02-3.34.93-5.25v-.03c.04-6.19-3.57-11.17-7.46-12.55ZM272.07,485.63c-.54-.22-1.06-.35-1.56-.37h-.17c-2.84.09-5.29,5.19-5.53,11.51-.25,6.47,2.13,10.8,4.83,11.9,3.25,1.34,7.03-.96,8.84-4.91.04-.1.09-.21.12-.31.67-1.55,1.02-3.34.93-5.25v-.03c.04-6.19-3.57-11.17-7.46-12.55ZM272.07,485.63c-.54-.22-1.06-.35-1.56-.37h-.17c-2.84.09-5.29,5.19-5.53,11.51-.25,6.47,2.13,10.8,4.83,11.9,3.25,1.34,7.03-.96,8.84-4.91.04-.1.09-.21.12-.31.67-1.55,1.02-3.34.93-5.25v-.03c.04-6.19-3.57-11.17-7.46-12.55ZM272.07,485.63c-.54-.22-1.06-.35-1.56-.37h-.17c-2.84.09-5.29,5.19-5.53,11.51-.25,6.47,2.13,10.8,4.83,11.9,3.25,1.34,7.03-.96,8.84-4.91.04-.1.09-.21.12-.31.67-1.55,1.02-3.34.93-5.25v-.03c.04-6.19-3.57-11.17-7.46-12.55ZM272.07,485.63c-.54-.22-1.06-.35-1.56-.37h-.17c-2.84.09-5.29,5.19-5.53,11.51-.25,6.47,2.13,10.8,4.83,11.9,3.25,1.34,7.03-.96,8.84-4.91.04-.1.09-.21.12-.31.67-1.55,1.02-3.34.93-5.25v-.03c.04-6.19-3.57-11.17-7.46-12.55ZM272.07,485.63c-.54-.22-1.06-.35-1.56-.37h-.17c-2.84.09-5.29,5.19-5.53,11.51-.25,6.47,2.13,10.8,4.83,11.9,3.25,1.34,7.03-.96,8.84-4.91.04-.1.09-.21.12-.31.67-1.55,1.02-3.34.93-5.25v-.03c.04-6.19-3.57-11.17-7.46-12.55ZM327.58,541.36c-.21-1.05-.48-1.81-.48-1.81,0,0-7.37-30.01-15.44-53.01-2.04-5.8-4.33-11.79-6.61-17.48-6.76-16.87-13.46-31.23-13.46-31.23,0,0-1.36-3.43-2.74-4.64-1.72-1.55-3.26-1.55-5.5-1.55,0,0-16.12-.68-23.49-.68s-23.68.68-23.68.68c-2.06,0-4.11.18-5.83,1.37-1.72,1.2-2.24,3.26-3.09,5.49,0,.18-10.46,28.14-17.15,49.58-3.42,11.04-7.44,25.47-10.49,36.71-1.19,4.36-2.23,8.24-3.03,11.25-1.1,4.09-1.75,6.6-1.75,6.6-.68,2.4-.68,4.11.68,5.66,1.03,1.2,4.47,1.72,4.47,1.72,0,0,5.96,1.05,11.59,1.91,1.58.25,3.14.48,4.53.67,3.05.35,7.52.72,11.07.98,1.32.09,2.51.18,3.47.25,1.4.09,2.28.14,2.28.14,0,0,2.58.34,4.13-.86,1.89-1.55,1.72-8.24,3.94-9.78,1.37-.85,3.09-.51,3.09-.51,0,0,5.32,1.37,9.43,1.37,5.15,0,10.99-1.2,10.99-1.2,0,0,1.53-.34,2.74.69,2.58,2.23,2.06,7.88,5.15,10.29.17.12.37.24.56.31,1.2.58,2.89.65,5.09.37,0,.12,7.07-.51,13.93-1.2,3.6-.35,7.15-.72,9.57-1.02,1.13-.16,2.4-.35,3.75-.56,7.84-1.31,18.22-3.56,18.22-3.56.52-.09,1.39-.41,2.17-.88.75-.45,1.44-1.02,1.77-1.69.58-1.34.41-3.08.14-4.37ZM258.99,519.35c-2.2.84-5.26,1-6.69,1-1.53,0-4.52-.08-6.69-.92-1.35-.14-2.83-.35-4.4-.71-3.25-.73-6.85-2.1-10.24-4.79-3.03-2.41-4.9-5.08-5.98-6.9h0c1.01-9.55,3.08-17.15,5.67-23.24,9.13-21.35,24.8-23.89,24.8-23.89,0,0,21.2-2.29,32.38,26.49,2.12,5.45,3.88,12.02,5.07,19.92.07.42.33,2.57.52,3.61-3.01,1.23-18.99,7.69-34.44,9.43ZM272.07,485.63c-.54-.22-1.06-.35-1.56-.37h-.17c-2.84.09-5.29,5.19-5.53,11.51-.25,6.47,2.13,10.8,4.83,11.9,3.25,1.34,7.03-.96,8.84-4.91.04-.1.09-.21.12-.31.67-1.55,1.02-3.34.93-5.25v-.03c.04-6.19-3.57-11.17-7.46-12.55ZM272.07,485.63c-.54-.22-1.06-.35-1.56-.37h-.17c-2.84.09-5.29,5.19-5.53,11.51-.25,6.47,2.13,10.8,4.83,11.9,3.25,1.34,7.03-.96,8.84-4.91.04-.1.09-.21.12-.31.67-1.55,1.02-3.34.93-5.25v-.03c.04-6.19-3.57-11.17-7.46-12.55ZM272.07,485.63c-.54-.22-1.06-.35-1.56-.37h-.17c-2.84.09-5.29,5.19-5.53,11.51-.25,6.47,2.13,10.8,4.83,11.9,3.25,1.34,7.03-.96,8.84-4.91.04-.1.09-.21.12-.31.67-1.55,1.02-3.34.93-5.25v-.03c.04-6.19-3.57-11.17-7.46-12.55ZM272.07,485.63c-.54-.22-1.06-.35-1.56-.37h-.17c-2.84.09-5.29,5.19-5.53,11.51-.25,6.47,2.13,10.8,4.83,11.9,3.25,1.34,7.03-.96,8.84-4.91.04-.1.09-.21.12-.31.67-1.55,1.02-3.34.93-5.25v-.03c.04-6.19-3.57-11.17-7.46-12.55ZM272.07,485.63c-.54-.22-1.06-.35-1.56-.37h-.17c-2.84.09-5.29,5.19-5.53,11.51-.25,6.47,2.13,10.8,4.83,11.9,3.25,1.34,7.03-.96,8.84-4.91.04-.1.09-.21.12-.31.67-1.55,1.02-3.34.93-5.25v-.03c.04-6.19-3.57-11.17-7.46-12.55ZM272.07,485.63c-.54-.22-1.06-.35-1.56-.37h-.17c-2.84.09-5.29,5.19-5.53,11.51-.25,6.47,2.13,10.8,4.83,11.9,3.25,1.34,7.03-.96,8.84-4.91.04-.1.09-.21.12-.31.67-1.55,1.02-3.34.93-5.25v-.03c.04-6.19-3.57-11.17-7.46-12.55ZM272.07,485.63c-.54-.22-1.06-.35-1.56-.37h-.17c-2.84.09-5.29,5.19-5.53,11.51-.25,6.47,2.13,10.8,4.83,11.9,3.25,1.34,7.03-.96,8.84-4.91.04-.1.09-.21.12-.31.67-1.55,1.02-3.34.93-5.25v-.03c.04-6.19-3.57-11.17-7.46-12.55Z"/>
      <path class="cls-19" d="M460.38,526c-2.74-6.34-7.71-16.98-7.71-16.98-1.03-2.4-1.03-3.6.17-4.96,0,0,15.44-8.76,15.44-29.16,0-39.63-39.46-44.77-83.72-44.77-21.44,0-44.08,1.53-44.08,1.53,0,0-3.09.18-4.47,1.55-1.37,1.37-1.19,4.47-1.19,4.47,0,0-.69,21.88-.84,43.31-.01,2.57-.03,5.13-.03,7.65,0,3.55.03,7.43.07,11.43.2,19.6.8,42.09.8,42.09,0,0,0,4.28,2.4,6,1.72,1.2,6.17,1.2,6.17,1.2,0,0,13.55.85,22.3.85,7.39,0,19.05-.85,19.05-.85,0,0,3.77,0,5.13-2.06,1.03-1.37.86-4.64.86-4.64v-19.21c0-3.09,1.2-3.95,6.52-4.64,4.98-.68,6.17,0,7.37,3.09l14.23,36.88s.86,2.58,2.41,3.43c1.55.86,5.49-.17,5.49-.17,0,0,9.09-1.72,19.38-4.98,10.63-3.26,17.85-7.37,17.85-7.37,0,0,3.43-1.72,3.77-3.26.51-1.89-.86-4.81-.86-4.81,0,0-3.6-8.92-6.52-15.61ZM395.03,486.37s-2.24-.17-3.26-1.02c-2.24-1.89-1.72-15.61-.35-16.81,1.03-.86,2.75-1.37,2.75-1.37,0,0,18.01-3.43,18.01,8.07,0,12.52-17.14,11.14-17.14,11.14Z"/>
      <path class="cls-14" d="M575.67,502.51c-2.07-.86-4.64.17-4.64.17,0,0-10.46,2.74-16.13,2.74-10.97,0-24-3.6-24-15.09s11.14-16.13,23.49-16.13c5.84,0,17.5,3.26,17.5,3.26,0,0,2.41,1.03,4.12-.17,2.4-1.72,2.23-20.42,2.23-22.3,0-2.75,0-17.67-2.23-20.42-1.2-1.72-4.81-2.4-4.81-2.4,0,0-10.97-1.89-21.62-1.89-45.45.17-76.33,20.93-76.33,61.23,0,36.37,25.22,60.55,74.28,60.55,12.52,0,25.39-3.25,25.39-3.25,0,0,2.57-.69,3.6-2.24,1.72-2.74,1.89-20.25,1.89-23.32,0-9.78-.34-19.73-2.74-20.76Z"/>
      <path class="cls-11" d="M645.31,489.8c0-19.38-.51-49.4-.51-49.4,0,0,.17-5.33-1.37-6.86-2.06-2.07-4.81-1.9-4.81-1.9,0,0-13.2-.51-20.76-.51s-22.13.51-22.13.51c0,0-2.4-.17-4.62,1.9-1.89,1.89-1.72,6.68-1.72,6.68,0,0-.69,30.03-.69,49.58,0,20.76.69,51.12.69,51.12,0,0-.34,5.15,1.72,6.86s5.66,1.55,5.66,1.55c0,0,12.86.51,21.1.51s20.42-.51,20.42-.51c0,0,3.77,0,5.32-1.89,1.37-1.72,1.2-5.32,1.2-6.69,0,0,.51-30.71.51-50.95Z"/>
      <path class="cls-19" d="M884.28,502.51c-2.06-.86-4.62.17-4.62.17,0,0-10.46,2.74-16.13,2.74-10.97,0-24.02-3.6-24.02-15.09s11.16-16.13,23.51-16.13c5.83,0,17.5,3.26,17.5,3.26,0,0,2.41,1.03,4.13-.17,2.4-1.72,2.23-20.42,2.23-22.3,0-2.75,0-17.67-2.23-20.42-1.2-1.72-4.81-2.4-4.81-2.4,0,0-10.99-1.89-21.62-1.89-45.45.17-76.33,20.93-76.33,61.23,0,36.37,25.22,60.55,74.28,60.55,12.52,0,25.39-3.25,25.39-3.25,0,0,2.57-.69,3.6-2.24,1.72-2.74,1.89-20.25,1.89-23.32,0-9.78-.34-19.73-2.75-20.76Z"/>
      <path class="cls-14" d="M915.68,427.02c-4.3,0-7.2,13.72-10.46,26.58-3.09,12.7-6.18,26.07-6.18,28.65,0,3.26,14.06,7.03,16.98,7.03,2.4,0,7.03-15.78,10.46-28.13,3.43-12.87,6.18-24.37,6.35-28.48,0-2.4-14.06-5.66-17.15-5.66Z"/>
      <path class="cls-11" d="M1030.62,482.77c-7.73-3.43-15.61-6-15.61-9.95,0-3.08,2.91-5.32,10.46-5.32,5.15,0,14.92,3.09,14.92,3.09,0,0,1.89,1.03,3.09.17,2.58-1.89,2.4-16.63,2.4-18.87,0-2.06.18-16.29-2.06-18.01-1.72-1.37-3.77-1.37-3.77-1.37,0,0-15.1-2.23-24.19-2.23-29.67,0-70.16,6.86-70.16,37.56,0,15.44,10.12,23.68,24.54,30.71,10.46,5.15,21.44,6.86,21.44,12.7,0,3.43-4.81,5.15-8.92,5.15-13.38,0-31.05-9.95-31.05-9.95,0,0-3.6-1.37-5.49-.34-3.78,2.06-2.92,14.92-2.92,18.01,0,2.41-.17,16.81,1.72,19.9,1.2,1.89,4.64,3.26,4.64,3.26,0,0,25.55,5.83,45.45,5.83,30.88,0,59.53-14.58,59.53-38.59,0-14.93-9.61-25.39-24.02-31.74Z"/>
      <path class="cls-5" d="M60.28,591.18c-13.1,0-25.56.94-25.56.94,0,0-2.2-.1-2.93.84-.63.73-.52,2.62-.52,2.62,0,0-.52,18.44-.52,31.43s.52,32.69.52,32.69c0,0-.1,2.51,1.26,3.67,1.15.94,3.98.73,3.98.73,0,0,7.44.42,12.26.42s11.63-.42,11.63-.42c0,0,2.41,0,3.05-.84.51-.73.51-2.1.51-3.25v-11.42s-.21-1.89,1.05-2.41c.63-.31,2.1-.21,2.1-.21h11.31c19.29,0,30.29-12.15,30.29-28.18,0-18.54-18.86-26.61-48.41-26.61ZM66.56,625.65s-1.36-.31-1.99-.84c-1.47-1.26-1.14-9.11-.1-9.95.52-.63,1.58-.94,1.58-.94,0,0,11.1-1.68,11.1,5.55,0,7.65-10.59,6.18-10.59,6.18Z"/>
      <path class="cls-5" d="M156.24,591.18c-22.42,0-45.05,14.04-45.05,36.46s21.79,38.03,43.48,38.03,43.59-15.82,43.59-38.34-20.76-36.14-42.02-36.14ZM154.77,636.76c-4.92,0-9.43-3.56-9.43-8.49,0-5.24,4.19-9.43,9.43-9.43s9.74,3.88,9.74,9.11-4.61,8.8-9.74,8.8Z"/>
      <path class="cls-5" d="M263.31,635.5c-1.26-.52-2.83.1-2.83.1,0,0-6.39,1.68-9.85,1.68-6.7,0-14.67-2.2-14.67-9.22s6.81-9.85,14.35-9.85c3.56,0,10.69,1.99,10.69,1.99,0,0,1.47.63,2.51-.1,1.47-1.05,1.36-12.47,1.36-13.62,0-1.68,0-10.79-1.36-12.47-.73-1.05-2.93-1.47-2.93-1.47,0,0-4.94-.85-10.45-1.09-.9-.04-1.83-.07-2.75-.07-3.22.01-6.33.2-9.3.55-22.59,2.66-37.32,15.09-37.32,36.85s15.4,36.98,45.36,36.98c7.65,0,15.5-1.99,15.5-1.99,0,0,1.57-.42,2.2-1.36,1.05-1.68,1.15-12.36,1.15-14.25,0-5.97-.21-12.05-1.68-12.68Z"/>
      <path class="cls-5" d="M352.35,659.39s-4.82-10.16-7.86-16.55c-2.62-5.55-7.02-14.35-7.02-14.35-.42-.84-1.15-2.41-1.15-2.83,0-1.15,1.89-2.62,1.89-2.62,0,0,3.77-3.77,5.76-5.87,2.72-2.83,6.29-6.7,6.29-6.7.73-.73,1.26-1.57,1.26-2.62,0-.94-1.68-2.62-1.68-2.62,0,0-3.98-4.61-9.95-9.11-4.92-3.77-9.53-5.97-9.53-5.97,0,0-1.15-.63-2.3-.63-.94,0-2.93,2.41-2.93,2.41l-13.41,13.51c-1.68,1.68-4.09,3.67-5.24,3.04-1.05-.63-1.36-1.78-1.36-3.04l.1-7.75s.1-3.04-.73-4.09c-1.15-1.47-3.67-1.36-3.67-1.36,0,0-7.12-.42-11.73-.42s-11.73.42-11.73.42c0,0-3.04,0-4.19.73-1.36.84-1.26,3.25-1.26,3.25,0,0-.63,19.8-.63,32.48s.52,31.32.52,31.32c0,0,0,1.78.52,2.83.63,1.26,2.93,1.26,2.93,1.26,0,0,8.38.42,15.09.42,4.5,0,11.52-.31,11.52-.31,0,0,2.62-.1,3.56-1.26.73-.94.84-1.68.84-2.83v-9.43c0-2.83.73-3.04,2.72-4.3,1.26-.84,4.19-1.78,4.92,0,0,0,3.25,7.54,5.24,12.47,1.89,4.61,4.19,10.27,4.19,10.27.52,1.26.84,1.99,1.99,2.51,1.15.52,3.35.1,3.35.1,0,0,5.34-1.15,12.05-3.35,4.92-1.57,10.69-4.61,10.69-4.61,0,0,1.78-.84,1.78-1.99s-.84-2.41-.84-2.41Z"/>
      <path class="cls-5" d="M417.94,640.84c-.84-1.05-2.3-1.05-3.56-1.05h-18.86s-2.72.1-3.25-.42c-.73-.73-.73-4.5,0-5.13.52-.52,3.25-.42,3.25-.42h15.5c1.26,0,3.04-.21,3.77-1.26.84-1.26.52-7.75-.21-8.59-.84-1.05-2.3-1.05-3.56-1.05h-15.61s-2.41.1-2.93-.42c-.84-.84-.73-5.03-.1-5.66.63-.52,3.14-.52,3.14-.52h16.45c1.26,0,3.04-.1,3.77-1.15.73-1.05.52-9.74.52-10.58,0-1.26.1-10.06-.94-11.31-.94-1.15-3.67-1.05-3.67-1.05,0,0-13.72-.63-23.15-.63-10.37,0-26.51.73-26.51.73-1.26,0-2.2.21-2.93,1.26-.63.94-.63,2.83-.63,2.83,0,0-.63,12.99-.63,29.65,0,12.26.73,33.94.73,33.94,0,1.15,0,1.99.63,2.93.73,1.15,2.83,1.15,2.83,1.15,0,0,16.13.73,26.51.73,9.43,0,25.56-.63,25.56-.63,0,0,2.83.1,3.67-1.15,1.05-1.57,1.05-8.8,1.05-10.37,0-1.15.1-10.69-.84-11.84Z"/>
      <path class="cls-5" d="M490.55,593.18c-1.05-1.05-3.77-.94-3.77-.94,0,0-18.75-.42-30.08-.42s-29.54.42-29.54.42c0,0-2.93,0-4.09,1.26-1.36,1.47-1.15,10.06-1.15,11.52,0,1.68-.31,10.27,1.26,11.63,1.05,1.05,3.98,1.26,3.98,1.26h10.16s1.78-.1,2.51.52.63,2.83.63,2.83l-1.05,38.97s-.1,2.1.84,3.04c.73.73,2.93.84,2.93.84,0,0,7.86.21,12.89.21,4.61,0,11.73-.21,11.73-.21,0,0,2.32.1,3.46-1.05,1.15-1.15.94-3.98.94-3.98l-.52-36.77s-.1-3.25.63-3.98c.96-.94,3.16-.73,3.16-.73h11.31s2.72.1,3.77-.94c1.26-1.26,1.15-10.16,1.15-11.63,0-1.57.31-10.37-1.15-11.84Z"/>
      <path class="cls-5" d="M567.12,616.22h17.39s1.99.1,2.83-.94c.94-1.15.63-9.74.63-10.79,0-1.26.1-10.06-.94-11.31-.94-1.05-3.35-1.05-3.35-1.05,0,0-13.83-.42-23.26-.42-10.37,0-26.82.52-26.82.52-1.26,0-2.3.1-3.04,1.15-.73.94-.63,2.93-.63,2.93,0,0-.52,13.41-.52,29.65,0,12.15.73,34.26.73,34.26,0,0,0,2.2.63,3.14.73,1.05,2.83.94,2.83.94,0,0,3.46.42,13.83.42,8.28,0,11.94-.63,11.94-.63,0,0,2.51-.21,3.67-1.15.94-.84.73-2.93.73-2.93l-.31-23.05s-.21-1.68.63-2.51c.73-.73,3.14-.63,3.14-.63l15.4.1s3.04.1,3.67-.73c.94-1.26.63-8.8,0-9.43-1.05-1.05-3.46-.94-3.46-.94h-15.82s-2.41,0-2.93-.52c-.84-.84-.73-4.92,0-5.55.63-.52,3.04-.52,3.04-.52Z"/>
      <path class="cls-5" d="M654.07,640.84c-.84-1.05-2.3-1.05-3.56-1.05h-18.86s-2.72.1-3.25-.42c-.73-.73-.73-4.5,0-5.13.52-.52,3.25-.42,3.25-.42h15.5c1.26,0,3.04-.21,3.77-1.26.84-1.26.52-7.75-.21-8.59-.84-1.05-2.3-1.05-3.56-1.05h-15.61s-2.41.1-2.93-.42c-.84-.84-.73-5.03-.1-5.66.63-.52,3.14-.52,3.14-.52h16.45c1.26,0,3.04-.1,3.77-1.15.73-1.05.52-9.74.52-10.58,0-1.26.1-10.06-.94-11.31-.94-1.15-3.67-1.05-3.67-1.05,0,0-13.72-.63-23.15-.63-10.37,0-26.5.73-26.5.73-1.26,0-2.2.21-2.93,1.26-.63.94-.63,2.83-.63,2.83,0,0-.63,12.99-.63,29.65,0,12.26.73,33.94.73,33.94,0,1.15,0,1.99.63,2.93.73,1.15,2.83,1.15,2.83,1.15,0,0,16.13.73,26.5.73,9.43,0,25.56-.63,25.56-.63,0,0,2.83.1,3.67-1.15,1.05-1.57,1.05-8.8,1.05-10.37,0-1.15.1-10.69-.84-11.84Z"/>
      <path class="cls-5" d="M713.05,623.45c-4.71-2.1-9.53-3.67-9.53-6.08,0-1.89,1.78-3.25,6.39-3.25,3.14,0,9.11,1.89,9.11,1.89,0,0,1.15.63,1.89.1,1.57-1.15,1.47-10.16,1.47-11.52,0-1.26.1-9.95-1.26-11-1.05-.84-2.3-.84-2.3-.84,0,0-9.22-1.36-14.77-1.36-18.12,0-42.85,4.19-42.85,22.94,0,9.43,6.18,14.46,14.98,18.75,6.39,3.14,13.1,4.19,13.1,7.75,0,2.1-2.93,3.14-5.45,3.14-8.17,0-18.96-6.08-18.96-6.08,0,0-2.2-.84-3.35-.21-2.3,1.26-1.78,9.11-1.78,11,0,1.47-.1,10.27,1.05,12.15.73,1.15,2.83,1.99,2.83,1.99,0,0,15.61,3.56,27.76,3.56,18.86,0,36.35-8.9,36.35-23.57,0-9.11-5.87-15.5-14.67-19.38Z"/>
      <path class="cls-5" d="M799.06,593.18c-1.05-1.05-3.77-.94-3.77-.94,0,0-18.75-.42-30.07-.42s-29.54.42-29.54.42c0,0-2.93,0-4.09,1.26-1.36,1.47-1.15,10.06-1.15,11.52,0,1.68-.31,10.27,1.26,11.63,1.05,1.05,3.98,1.26,3.98,1.26h10.16s1.78-.1,2.51.52.63,2.83.63,2.83l-1.05,38.97s-.1,2.1.84,3.04c.73.73,2.93.84,2.93.84,0,0,7.86.21,12.89.21,4.61,0,11.73-.21,11.73-.21,0,0,2.3.1,3.46-1.05s.94-3.98.94-3.98l-.52-36.77s-.1-3.25.63-3.98c.94-.94,3.14-.73,3.14-.73h11.31s2.72.1,3.77-.94c1.26-1.26,1.15-10.16,1.15-11.63,0-1.57.31-10.37-1.15-11.84Z"/>
      <path class="cls-5" d="M838.98,627.75c0-11.84-.31-30.17-.31-30.17,0,0,.1-3.25-.84-4.19-1.26-1.26-2.93-1.15-2.93-1.15,0,0-8.07-.31-12.68-.31s-13.51.31-13.51.31c0,0-1.47-.1-2.83,1.15-1.15,1.15-1.05,4.09-1.05,4.09,0,0-.42,18.33-.42,30.28,0,12.68.42,31.22.42,31.22,0,0-.21,3.14,1.05,4.19,1.26,1.05,3.46.94,3.46.94,0,0,7.86.31,12.89.31s12.47-.31,12.47-.31c0,0,2.3,0,3.25-1.15.84-1.05.73-3.25.73-4.09,0,0,.31-18.75.31-31.11Z"/>
      <path class="cls-5" d="M923.21,594.01c-.84-.73-2.72-1.05-2.72-1.05,0,0-3.14-.73-8.9-1.36-5.76-.63-10.16-.94-10.16-.94,0,0-1.78-.1-2.62.42-.73.52-.84,2.1-.84,2.1,0,0-1.26,8.38-2.41,13.72-1.57,7.23-3.04,12.68-3.04,12.68-.42,1.68-1.15,4.19-2.3,4.19-1.36,0-2.3-2.41-2.83-3.98,0,0-2.93-8.07-4.61-13.2-1.78-5.34-4.3-13.83-4.3-13.83,0,0-.42-1.26-.94-1.68-1.15-.84-3.35-.63-3.35-.63,0,0-9.64.73-13.93,1.47-8.49,1.36-14.98,2.62-14.98,2.62,0,0-1.89.42-2.3,1.26-.63,1.47.1,4.09.1,4.09,0,0,4.71,16.76,9.64,30.8,3.56,10.16,11.84,29.75,11.84,29.75,0,0,.63,1.78,1.47,2.51,1.05.94,3.56,1.15,3.56,1.15,0,0,9.85.42,14.35.42s14.46-.42,14.46-.42c0,0,2.51,0,3.67-1.05,1.15-1.05,1.78-3.14,1.78-3.14,0,0,6.7-18.23,10.48-30.17,4.09-12.89,9.32-32.16,9.32-32.16,0,0,.84-2.51-.42-3.56Z"/>
      <path class="cls-5" d="M1000.83,658.13s-4.5-18.33-9.43-32.37c-4.92-14.04-12.26-29.75-12.26-29.75,0,0-.84-2.1-1.68-2.83-1.05-.94-1.99-.94-3.35-.94,0,0-9.85-.42-14.35-.42s-14.46.42-14.46.42c-1.26,0-2.51.1-3.56.84s-1.36,1.99-1.89,3.35c0,.1-6.39,17.18-10.48,30.28-3.98,12.89-9.32,33.31-9.32,33.31-.42,1.47-.42,2.51.42,3.46.63.73,2.72,1.05,2.72,1.05,0,0,5.97,1.05,9.85,1.57,3.56.42,10.27.84,10.27.84,0,0,1.57.21,2.51-.52,1.15-.94,1.05-5.03,2.41-5.97.84-.52,1.89-.31,1.89-.31,0,0,3.25.84,5.76.84,3.14,0,6.7-.73,6.7-.73,0,0,.94-.21,1.68.42,1.57,1.36,1.26,4.82,3.14,6.29.73.52,1.89.63,3.46.42,0,.1,10.06-.84,14.35-1.36,4.71-.63,13.41-2.51,13.41-2.51.63-.1,1.99-.73,2.41-1.57.63-1.47-.21-3.77-.21-3.77ZM960.61,644.82c-.84,1.36-4.19,1.57-5.45,1.57-1.36,0-4.61-.1-5.45-1.57-.42-.73-.42-1.89,0-3.25l2.1-7.54c.42-1.68,1.15-3.67,2.62-3.67s2.2,1.89,2.72,3.25l3.04,7.54c.73,1.89.94,2.83.42,3.67Z"/>
      <path class="cls-5" d="M1066.52,651.84c0-1.15.1-10.79-1.05-12.05-.84-.94-3.46-.94-3.46-.94,0,0-6.29.21-10.37.21-3.56,0-9.22-.21-9.22-.21,0,0-2.51,0-3.04-.52-.52-.52-.52-2.83-.52-2.83,0,0-.21-11.63-.21-19.07s.21-18.86.21-18.86c0-1.47,0-3.04-.94-3.98-1.26-1.26-2.1-1.36-3.98-1.36,0,0-7.23-.31-11.84-.31s-11.84.31-11.84.31c-1.68,0-2.83,0-3.77.63-1.15.94-.94,3.35-.94,3.35,0,0-.52,18.54-.52,31.22s.42,32.58.42,32.58c0,0,.1,2.2.52,2.83.84,1.26,2.93,1.26,2.93,1.26,0,0,16.13.63,26.51.63,9.43,0,26.5-.52,26.5-.52,0,0,3.04.1,3.88-1.15.84-1.26.73-10.06.73-11.21Z"/>
      <path class="cls-12" d="M60.28,591.18c-13.1,0-25.56.94-25.56.94,0,0-2.2-.1-2.93.84-.63.73-.52,2.62-.52,2.62,0,0-.52,18.44-.52,31.43s.52,32.69.52,32.69c0,0-.1,2.51,1.26,3.67,1.15.94,3.98.73,3.98.73,0,0,7.44.42,12.26.42s11.63-.42,11.63-.42c0,0,2.41,0,3.05-.84.51-.73.51-2.1.51-3.25v-11.42s-.21-1.89,1.05-2.41c.63-.31,2.1-.21,2.1-.21h11.31c19.29,0,30.29-12.15,30.29-28.18,0-18.54-18.86-26.61-48.41-26.61ZM66.56,625.65s-1.36-.31-1.99-.84c-1.47-1.26-1.14-9.11-.1-9.95.52-.63,1.58-.94,1.58-.94,0,0,11.1-1.68,11.1,5.55,0,7.65-10.59,6.18-10.59,6.18Z"/>
      <path class="cls-12" d="M156.24,591.18c-22.42,0-45.05,14.04-45.05,36.46s21.79,38.03,43.48,38.03,43.59-15.82,43.59-38.34-20.76-36.14-42.02-36.14ZM154.77,636.76c-4.92,0-9.43-3.56-9.43-8.49,0-5.24,4.19-9.43,9.43-9.43s9.74,3.88,9.74,9.11-4.61,8.8-9.74,8.8Z"/>
      <path class="cls-12" d="M263.31,635.5c-1.26-.52-2.83.1-2.83.1,0,0-6.39,1.68-9.85,1.68-6.7,0-14.67-2.2-14.67-9.22s6.81-9.85,14.35-9.85c3.56,0,10.69,1.99,10.69,1.99,0,0,1.47.63,2.51-.1,1.47-1.05,1.36-12.47,1.36-13.62,0-1.68,0-10.79-1.36-12.47-.73-1.05-2.93-1.47-2.93-1.47,0,0-4.94-.85-10.45-1.09-.9-.04-1.83-.07-2.75-.07-3.22.01-6.33.2-9.3.55-22.59,2.66-37.32,15.09-37.32,36.85s15.4,36.98,45.36,36.98c7.65,0,15.5-1.99,15.5-1.99,0,0,1.57-.42,2.2-1.36,1.05-1.68,1.15-12.36,1.15-14.25,0-5.97-.21-12.05-1.68-12.68Z"/>
      <path class="cls-12" d="M352.35,659.39s-4.82-10.16-7.86-16.55c-2.62-5.55-7.02-14.35-7.02-14.35-.42-.84-1.15-2.41-1.15-2.83,0-1.15,1.89-2.62,1.89-2.62,0,0,3.77-3.77,5.76-5.87,2.72-2.83,6.29-6.7,6.29-6.7.73-.73,1.26-1.57,1.26-2.62,0-.94-1.68-2.62-1.68-2.62,0,0-3.98-4.61-9.95-9.11-4.92-3.77-9.53-5.97-9.53-5.97,0,0-1.15-.63-2.3-.63-.94,0-2.93,2.41-2.93,2.41l-13.41,13.51c-1.68,1.68-4.09,3.67-5.24,3.04-1.05-.63-1.36-1.78-1.36-3.04l.1-7.75s.1-3.04-.73-4.09c-1.15-1.47-3.67-1.36-3.67-1.36,0,0-7.12-.42-11.73-.42s-11.73.42-11.73.42c0,0-3.04,0-4.19.73-1.36.84-1.26,3.25-1.26,3.25,0,0-.63,19.8-.63,32.48s.52,31.32.52,31.32c0,0,0,1.78.52,2.83.63,1.26,2.93,1.26,2.93,1.26,0,0,8.38.42,15.09.42,4.5,0,11.52-.31,11.52-.31,0,0,2.62-.1,3.56-1.26.73-.94.84-1.68.84-2.83v-9.43c0-2.83.73-3.04,2.72-4.3,1.26-.84,4.19-1.78,4.92,0,0,0,3.25,7.54,5.24,12.47,1.89,4.61,4.19,10.27,4.19,10.27.52,1.26.84,1.99,1.99,2.51,1.15.52,3.35.1,3.35.1,0,0,5.34-1.15,12.05-3.35,4.92-1.57,10.69-4.61,10.69-4.61,0,0,1.78-.84,1.78-1.99s-.84-2.41-.84-2.41Z"/>
      <path class="cls-12" d="M417.94,640.84c-.84-1.05-2.3-1.05-3.56-1.05h-18.86s-2.72.1-3.25-.42c-.73-.73-.73-4.5,0-5.13.52-.52,3.25-.42,3.25-.42h15.5c1.26,0,3.04-.21,3.77-1.26.84-1.26.52-7.75-.21-8.59-.84-1.05-2.3-1.05-3.56-1.05h-15.61s-2.41.1-2.93-.42c-.84-.84-.73-5.03-.1-5.66.63-.52,3.14-.52,3.14-.52h16.45c1.26,0,3.04-.1,3.77-1.15.73-1.05.52-9.74.52-10.58,0-1.26.1-10.06-.94-11.31-.94-1.15-3.67-1.05-3.67-1.05,0,0-13.72-.63-23.15-.63-10.37,0-26.51.73-26.51.73-1.26,0-2.2.21-2.93,1.26-.63.94-.63,2.83-.63,2.83,0,0-.63,12.99-.63,29.65,0,12.26.73,33.94.73,33.94,0,1.15,0,1.99.63,2.93.73,1.15,2.83,1.15,2.83,1.15,0,0,16.13.73,26.51.73,9.43,0,25.56-.63,25.56-.63,0,0,2.83.1,3.67-1.15,1.05-1.57,1.05-8.8,1.05-10.37,0-1.15.1-10.69-.84-11.84Z"/>
      <path class="cls-12" d="M490.55,593.18c-1.05-1.05-3.77-.94-3.77-.94,0,0-18.75-.42-30.08-.42s-29.54.42-29.54.42c0,0-2.93,0-4.09,1.26-1.36,1.47-1.15,10.06-1.15,11.52,0,1.68-.31,10.27,1.26,11.63,1.05,1.05,3.98,1.26,3.98,1.26h10.16s1.78-.1,2.51.52.63,2.83.63,2.83l-1.05,38.97s-.1,2.1.84,3.04c.73.73,2.93.84,2.93.84,0,0,7.86.21,12.89.21,4.61,0,11.73-.21,11.73-.21,0,0,2.32.1,3.46-1.05,1.15-1.15.94-3.98.94-3.98l-.52-36.77s-.1-3.25.63-3.98c.96-.94,3.16-.73,3.16-.73h11.31s2.72.1,3.77-.94c1.26-1.26,1.15-10.16,1.15-11.63,0-1.57.31-10.37-1.15-11.84Z"/>
      <path class="cls-12" d="M567.12,616.22h17.39s1.99.1,2.83-.94c.94-1.15.63-9.74.63-10.79,0-1.26.1-10.06-.94-11.31-.94-1.05-3.35-1.05-3.35-1.05,0,0-13.83-.42-23.26-.42-10.37,0-26.82.52-26.82.52-1.26,0-2.3.1-3.04,1.15-.73.94-.63,2.93-.63,2.93,0,0-.52,13.41-.52,29.65,0,12.15.73,34.26.73,34.26,0,0,0,2.2.63,3.14.73,1.05,2.83.94,2.83.94,0,0,3.46.42,13.83.42,8.28,0,11.94-.63,11.94-.63,0,0,2.51-.21,3.67-1.15.94-.84.73-2.93.73-2.93l-.31-23.05s-.21-1.68.63-2.51c.73-.73,3.14-.63,3.14-.63l15.4.1s3.04.1,3.67-.73c.94-1.26.63-8.8,0-9.43-1.05-1.05-3.46-.94-3.46-.94h-15.82s-2.41,0-2.93-.52c-.84-.84-.73-4.92,0-5.55.63-.52,3.04-.52,3.04-.52Z"/>
      <path class="cls-12" d="M654.07,640.84c-.84-1.05-2.3-1.05-3.56-1.05h-18.86s-2.72.1-3.25-.42c-.73-.73-.73-4.5,0-5.13.52-.52,3.25-.42,3.25-.42h15.5c1.26,0,3.04-.21,3.77-1.26.84-1.26.52-7.75-.21-8.59-.84-1.05-2.3-1.05-3.56-1.05h-15.61s-2.41.1-2.93-.42c-.84-.84-.73-5.03-.1-5.66.63-.52,3.14-.52,3.14-.52h16.45c1.26,0,3.04-.1,3.77-1.15.73-1.05.52-9.74.52-10.58,0-1.26.1-10.06-.94-11.31-.94-1.15-3.67-1.05-3.67-1.05,0,0-13.72-.63-23.15-.63-10.37,0-26.5.73-26.5.73-1.26,0-2.2.21-2.93,1.26-.63.94-.63,2.83-.63,2.83,0,0-.63,12.99-.63,29.65,0,12.26.73,33.94.73,33.94,0,1.15,0,1.99.63,2.93.73,1.15,2.83,1.15,2.83,1.15,0,0,16.13.73,26.5.73,9.43,0,25.56-.63,25.56-.63,0,0,2.83.1,3.67-1.15,1.05-1.57,1.05-8.8,1.05-10.37,0-1.15.1-10.69-.84-11.84Z"/>
      <path class="cls-12" d="M713.05,623.45c-4.71-2.1-9.53-3.67-9.53-6.08,0-1.89,1.78-3.25,6.39-3.25,3.14,0,9.11,1.89,9.11,1.89,0,0,1.15.63,1.89.1,1.57-1.15,1.47-10.16,1.47-11.52,0-1.26.1-9.95-1.26-11-1.05-.84-2.3-.84-2.3-.84,0,0-9.22-1.36-14.77-1.36-18.12,0-42.85,4.19-42.85,22.94,0,9.43,6.18,14.46,14.98,18.75,6.39,3.14,13.1,4.19,13.1,7.75,0,2.1-2.93,3.14-5.45,3.14-8.17,0-18.96-6.08-18.96-6.08,0,0-2.2-.84-3.35-.21-2.3,1.26-1.78,9.11-1.78,11,0,1.47-.1,10.27,1.05,12.15.73,1.15,2.83,1.99,2.83,1.99,0,0,15.61,3.56,27.76,3.56,18.86,0,36.35-8.9,36.35-23.57,0-9.11-5.87-15.5-14.67-19.38Z"/>
      <path class="cls-12" d="M799.06,593.18c-1.05-1.05-3.77-.94-3.77-.94,0,0-18.75-.42-30.07-.42s-29.54.42-29.54.42c0,0-2.93,0-4.09,1.26-1.36,1.47-1.15,10.06-1.15,11.52,0,1.68-.31,10.27,1.26,11.63,1.05,1.05,3.98,1.26,3.98,1.26h10.16s1.78-.1,2.51.52.63,2.83.63,2.83l-1.05,38.97s-.1,2.1.84,3.04c.73.73,2.93.84,2.93.84,0,0,7.86.21,12.89.21,4.61,0,11.73-.21,11.73-.21,0,0,2.3.1,3.46-1.05s.94-3.98.94-3.98l-.52-36.77s-.1-3.25.63-3.98c.94-.94,3.14-.73,3.14-.73h11.31s2.72.1,3.77-.94c1.26-1.26,1.15-10.16,1.15-11.63,0-1.57.31-10.37-1.15-11.84Z"/>
      <path class="cls-12" d="M838.98,627.75c0-11.84-.31-30.17-.31-30.17,0,0,.1-3.25-.84-4.19-1.26-1.26-2.93-1.15-2.93-1.15,0,0-8.07-.31-12.68-.31s-13.51.31-13.51.31c0,0-1.47-.1-2.83,1.15-1.15,1.15-1.05,4.09-1.05,4.09,0,0-.42,18.33-.42,30.28,0,12.68.42,31.22.42,31.22,0,0-.21,3.14,1.05,4.19,1.26,1.05,3.46.94,3.46.94,0,0,7.86.31,12.89.31s12.47-.31,12.47-.31c0,0,2.3,0,3.25-1.15.84-1.05.73-3.25.73-4.09,0,0,.31-18.75.31-31.11Z"/>
      <path class="cls-12" d="M923.21,594.01c-.84-.73-2.72-1.05-2.72-1.05,0,0-3.14-.73-8.9-1.36-5.76-.63-10.16-.94-10.16-.94,0,0-1.78-.1-2.62.42-.73.52-.84,2.1-.84,2.1,0,0-1.26,8.38-2.41,13.72-1.57,7.23-3.04,12.68-3.04,12.68-.42,1.68-1.15,4.19-2.3,4.19-1.36,0-2.3-2.41-2.83-3.98,0,0-2.93-8.07-4.61-13.2-1.78-5.34-4.3-13.83-4.3-13.83,0,0-.42-1.26-.94-1.68-1.15-.84-3.35-.63-3.35-.63,0,0-9.64.73-13.93,1.47-8.49,1.36-14.98,2.62-14.98,2.62,0,0-1.89.42-2.3,1.26-.63,1.47.1,4.09.1,4.09,0,0,4.71,16.76,9.64,30.8,3.56,10.16,11.84,29.75,11.84,29.75,0,0,.63,1.78,1.47,2.51,1.05.94,3.56,1.15,3.56,1.15,0,0,9.85.42,14.35.42s14.46-.42,14.46-.42c0,0,2.51,0,3.67-1.05,1.15-1.05,1.78-3.14,1.78-3.14,0,0,6.7-18.23,10.48-30.17,4.09-12.89,9.32-32.16,9.32-32.16,0,0,.84-2.51-.42-3.56Z"/>
      <path class="cls-12" d="M1000.83,658.13s-4.5-18.33-9.43-32.37c-4.92-14.04-12.26-29.75-12.26-29.75,0,0-.84-2.1-1.68-2.83-1.05-.94-1.99-.94-3.35-.94,0,0-9.85-.42-14.35-.42s-14.46.42-14.46.42c-1.26,0-2.51.1-3.56.84s-1.36,1.99-1.89,3.35c0,.1-6.39,17.18-10.48,30.28-3.98,12.89-9.32,33.31-9.32,33.31-.42,1.47-.42,2.51.42,3.46.63.73,2.72,1.05,2.72,1.05,0,0,5.97,1.05,9.85,1.57,3.56.42,10.27.84,10.27.84,0,0,1.57.21,2.51-.52,1.15-.94,1.05-5.03,2.41-5.97.84-.52,1.89-.31,1.89-.31,0,0,3.25.84,5.76.84,3.14,0,6.7-.73,6.7-.73,0,0,.94-.21,1.68.42,1.57,1.36,1.26,4.82,3.14,6.29.73.52,1.89.63,3.46.42,0,.1,10.06-.84,14.35-1.36,4.71-.63,13.41-2.51,13.41-2.51.63-.1,1.99-.73,2.41-1.57.63-1.47-.21-3.77-.21-3.77ZM960.61,644.82c-.84,1.36-4.19,1.57-5.45,1.57-1.36,0-4.61-.1-5.45-1.57-.42-.73-.42-1.89,0-3.25l2.1-7.54c.42-1.68,1.15-3.67,2.62-3.67s2.2,1.89,2.72,3.25l3.04,7.54c.73,1.89.94,2.83.42,3.67Z"/>
      <path class="cls-12" d="M1066.52,651.84c0-1.15.1-10.79-1.05-12.05-.84-.94-3.46-.94-3.46-.94,0,0-6.29.21-10.37.21-3.56,0-9.22-.21-9.22-.21,0,0-2.51,0-3.04-.52-.52-.52-.52-2.83-.52-2.83,0,0-.21-11.63-.21-19.07s.21-18.86.21-18.86c0-1.47,0-3.04-.94-3.98-1.26-1.26-2.1-1.36-3.98-1.36,0,0-7.23-.31-11.84-.31s-11.84.31-11.84.31c-1.68,0-2.83,0-3.77.63-1.15.94-.94,3.35-.94,3.35,0,0-.52,18.54-.52,31.22s.42,32.58.42,32.58c0,0,.1,2.2.52,2.83.84,1.26,2.93,1.26,2.93,1.26,0,0,16.13.63,26.51.63,9.43,0,26.5-.52,26.5-.52,0,0,3.04.1,3.88-1.15.84-1.26.73-10.06.73-11.21Z"/>
    </g>
    <path class="cls-13" d="M782.31,538.5s-7.21-29.34-15.09-51.81c-7.88-22.47-19.62-47.62-19.62-47.62,0,0-1.34-3.35-2.68-4.53-1.68-1.51-3.19-1.51-5.37-1.51,0,0-15.76-.67-22.97-.67s-23.14.67-23.14.67c-2.01,0-4.02.17-5.7,1.34s-2.18,3.19-3.02,5.37c0,.17-10.23,27.5-16.77,48.46-6.37,20.62-14.92,53.32-14.92,53.32-.67,2.35-.67,4.02.67,5.53,1.01,1.17,4.36,1.68,4.36,1.68,0,0,9.56,1.68,15.76,2.52,5.7.67,16.43,1.34,16.43,1.34,0,0,2.52.34,4.02-.84,1.84-1.51,1.68-8.05,3.86-9.56,1.34-.84,3.02-.5,3.02-.5,0,0,5.2,1.34,9.22,1.34,5.03,0,10.73-1.17,10.73-1.17,0,0,1.51-.34,2.68.67,2.52,2.18,2.01,7.71,5.03,10.06,1.17.84,3.02,1.01,5.53.67,0,.17,16.1-1.34,22.97-2.18,7.55-1.01,21.46-4.02,21.46-4.02,1.01-.17,3.19-1.17,3.86-2.52,1.01-2.35-.34-6.04-.34-6.04ZM717.92,517.2c-1.34,2.18-6.71,2.52-8.72,2.52-2.18,0-7.38-.17-8.72-2.52-.67-1.17-.67-3.02,0-5.2l3.35-12.07c.67-2.68,1.84-5.87,4.19-5.87s3.52,3.02,4.36,5.2l4.86,12.07c1.17,3.02,1.51,4.53.67,5.87Z"/>
  </g>
  <g id="Calque_2">
    <g>
      <path class="cls-17" d="M187.92,440.6s.17-4.45-1.89-6.34c-2.24-2.06-7.56-2.24-7.56-2.24,0,0-9.77-.34-15.95-.34-7.54,0-19.21.34-19.21.34,0,0-2.92,0-4.64.86-1.72.85-3.77,3.77-3.77,3.77-7.54,11.33-15.61,21.96-22.3,30.54,0,0-2.75,4.64-5.49,4.64-2.58,0-5.49-3.95-5.49-3.95,0,0-6.86-9.6-11.5-15.78-4.47-6-11.5-15.44-11.5-15.44,0,0-1.55-2.4-2.91-3.26-1.37-.85-4.3-1.37-4.3-1.37,0,0-12.01-.68-19.55-.68-8.24,0-21.28.68-21.28.68,0,0-3.94,0-5.49,1.55s-1.37,5.32-1.37,5.32c0,0-.51,31.57-.51,51.82s.86,53.17.86,53.17c0,0-.18,3.09,1.72,4.64,1.19,1.03,4.96,1.03,4.96,1.03,0,0,10.82.68,17.68.68,6.17,0,15.78-.51,15.78-.51,0,0,4.98.17,7.03-1.55,1.55-1.37,1.2-4.11,1.2-4.11l-.17-14.42s-.52-4.45,2.23-4.45c2.57,0,4.28,2.06,4.64,2.91,4.28,6.86,7.37,11.84,14.4,22.47,0,0,3.94,5.15,7.37,5.15,3.6,0,7.56-5.49,7.56-5.49l15.95-21.1c1.72-2.23,3.6-4.98,6.17-3.77,2.58,1.19,2.07,5.66,2.07,5.66v13.04s-.17,3.25,1.55,4.62c1.36,1.03,7.2,1.03,7.2,1.03,0,0,12.69.85,20.76.85s20.06-1.02,20.06-1.02c0,0,3.09,0,4.3-1.2,1.38-1.38,1.38-4.81,1.38-4.81,0,0,.51-32.07.51-54.03,0-19.04-.51-48.9-.51-48.9Z"/>
      <path class="cls-18" d="M272.19,486.01c-.54-.22-1.06-.35-1.56-.37h-.17c-2.84.09-5.29,5.19-5.53,11.51-.25,6.47,2.13,10.8,4.83,11.9,3.25,1.34,7.03-.96,8.84-4.91.04-.1.09-.21.12-.31.67-1.55,1.02-3.34.93-5.25v-.03c.04-6.19-3.57-11.17-7.46-12.55ZM272.19,486.01c-.54-.22-1.06-.35-1.56-.37h-.17c-2.84.09-5.29,5.19-5.53,11.51-.25,6.47,2.13,10.8,4.83,11.9,3.25,1.34,7.03-.96,8.84-4.91.04-.1.09-.21.12-.31.67-1.55,1.02-3.34.93-5.25v-.03c.04-6.19-3.57-11.17-7.46-12.55ZM272.19,486.01c-.54-.22-1.06-.35-1.56-.37h-.17c-2.84.09-5.29,5.19-5.53,11.51-.25,6.47,2.13,10.8,4.83,11.9,3.25,1.34,7.03-.96,8.84-4.91.04-.1.09-.21.12-.31.67-1.55,1.02-3.34.93-5.25v-.03c.04-6.19-3.57-11.17-7.46-12.55ZM272.19,486.01c-.54-.22-1.06-.35-1.56-.37h-.17c-2.84.09-5.29,5.19-5.53,11.51-.25,6.47,2.13,10.8,4.83,11.9,3.25,1.34,7.03-.96,8.84-4.91.04-.1.09-.21.12-.31.67-1.55,1.02-3.34.93-5.25v-.03c.04-6.19-3.57-11.17-7.46-12.55ZM272.19,486.01c-.54-.22-1.06-.35-1.56-.37h-.17c-2.84.09-5.29,5.19-5.53,11.51-.25,6.47,2.13,10.8,4.83,11.9,3.25,1.34,7.03-.96,8.84-4.91.04-.1.09-.21.12-.31.67-1.55,1.02-3.34.93-5.25v-.03c.04-6.19-3.57-11.17-7.46-12.55ZM272.19,486.01c-.54-.22-1.06-.35-1.56-.37h-.17c-2.84.09-5.29,5.19-5.53,11.51-.25,6.47,2.13,10.8,4.83,11.9,3.25,1.34,7.03-.96,8.84-4.91.04-.1.09-.21.12-.31.67-1.55,1.02-3.34.93-5.25v-.03c.04-6.19-3.57-11.17-7.46-12.55ZM327.7,541.74c-.21-1.05-.48-1.81-.48-1.81,0,0-7.37-30.01-15.44-53.01-2.04-5.8-4.33-11.79-6.61-17.48-6.76-16.87-13.46-31.23-13.46-31.23,0,0-1.36-3.43-2.74-4.64-1.72-1.55-3.26-1.55-5.5-1.55,0,0-16.12-.68-23.49-.68s-23.68.68-23.68.68c-2.06,0-4.11.18-5.83,1.37-1.72,1.2-2.24,3.26-3.09,5.49,0,.18-10.46,28.14-17.15,49.58-3.42,11.04-7.44,25.47-10.49,36.71-1.19,4.36-2.23,8.24-3.03,11.25-1.1,4.09-1.75,6.6-1.75,6.6-.68,2.4-.68,4.11.68,5.66,1.03,1.2,4.47,1.72,4.47,1.72,0,0,5.96,1.05,11.59,1.91,1.58.25,3.14.48,4.53.67,3.05.35,7.52.72,11.07.98,1.32.09,2.51.18,3.47.25,1.4.09,2.28.14,2.28.14,0,0,2.58.34,4.13-.86,1.89-1.55,1.72-8.24,3.94-9.78,1.37-.85,3.09-.51,3.09-.51,0,0,5.32,1.37,9.43,1.37,5.15,0,10.99-1.2,10.99-1.2,0,0,1.53-.34,2.74.69,2.58,2.23,2.06,7.88,5.15,10.29.17.12.37.24.56.31,1.2.58,2.89.65,5.09.37,0,.12,7.07-.51,13.93-1.2,3.6-.35,7.15-.72,9.57-1.02,1.13-.16,2.4-.35,3.75-.56,7.84-1.31,18.22-3.56,18.22-3.56.52-.09,1.39-.41,2.17-.88.75-.45,1.44-1.02,1.77-1.69.58-1.34.41-3.08.14-4.37ZM259.1,519.73c-2.2.84-5.26,1-6.69,1-1.53,0-4.52-.08-6.69-.92-1.35-.14-2.83-.35-4.4-.71-3.25-.73-6.85-2.1-10.24-4.79-3.03-2.41-4.9-5.08-5.98-6.9h0c1.01-9.55,3.08-17.15,5.67-23.24,9.13-21.35,24.8-23.89,24.8-23.89,0,0,21.2-2.29,32.38,26.49,2.12,5.45,3.88,12.02,5.07,19.92.07.42.33,2.57.52,3.61-3.01,1.23-18.99,7.69-34.44,9.43ZM272.19,486.01c-.54-.22-1.06-.35-1.56-.37h-.17c-2.84.09-5.29,5.19-5.53,11.51-.25,6.47,2.13,10.8,4.83,11.9,3.25,1.34,7.03-.96,8.84-4.91.04-.1.09-.21.12-.31.67-1.55,1.02-3.34.93-5.25v-.03c.04-6.19-3.57-11.17-7.46-12.55ZM272.19,486.01c-.54-.22-1.06-.35-1.56-.37h-.17c-2.84.09-5.29,5.19-5.53,11.51-.25,6.47,2.13,10.8,4.83,11.9,3.25,1.34,7.03-.96,8.84-4.91.04-.1.09-.21.12-.31.67-1.55,1.02-3.34.93-5.25v-.03c.04-6.19-3.57-11.17-7.46-12.55ZM272.19,486.01c-.54-.22-1.06-.35-1.56-.37h-.17c-2.84.09-5.29,5.19-5.53,11.51-.25,6.47,2.13,10.8,4.83,11.9,3.25,1.34,7.03-.96,8.84-4.91.04-.1.09-.21.12-.31.67-1.55,1.02-3.34.93-5.25v-.03c.04-6.19-3.57-11.17-7.46-12.55ZM272.19,486.01c-.54-.22-1.06-.35-1.56-.37h-.17c-2.84.09-5.29,5.19-5.53,11.51-.25,6.47,2.13,10.8,4.83,11.9,3.25,1.34,7.03-.96,8.84-4.91.04-.1.09-.21.12-.31.67-1.55,1.02-3.34.93-5.25v-.03c.04-6.19-3.57-11.17-7.46-12.55ZM272.19,486.01c-.54-.22-1.06-.35-1.56-.37h-.17c-2.84.09-5.29,5.19-5.53,11.51-.25,6.47,2.13,10.8,4.83,11.9,3.25,1.34,7.03-.96,8.84-4.91.04-.1.09-.21.12-.31.67-1.55,1.02-3.34.93-5.25v-.03c.04-6.19-3.57-11.17-7.46-12.55ZM272.19,486.01c-.54-.22-1.06-.35-1.56-.37h-.17c-2.84.09-5.29,5.19-5.53,11.51-.25,6.47,2.13,10.8,4.83,11.9,3.25,1.34,7.03-.96,8.84-4.91.04-.1.09-.21.12-.31.67-1.55,1.02-3.34.93-5.25v-.03c.04-6.19-3.57-11.17-7.46-12.55ZM272.19,486.01c-.54-.22-1.06-.35-1.56-.37h-.17c-2.84.09-5.29,5.19-5.53,11.51-.25,6.47,2.13,10.8,4.83,11.9,3.25,1.34,7.03-.96,8.84-4.91.04-.1.09-.21.12-.31.67-1.55,1.02-3.34.93-5.25v-.03c.04-6.19-3.57-11.17-7.46-12.55Z"/>
      <path class="cls-15" d="M460.5,526.38c-2.74-6.34-7.71-16.98-7.71-16.98-1.03-2.4-1.03-3.6.17-4.96,0,0,15.44-8.76,15.44-29.16,0-39.63-39.46-44.77-83.72-44.77-21.44,0-44.08,1.53-44.08,1.53,0,0-3.09.18-4.47,1.55-1.37,1.37-1.19,4.47-1.19,4.47,0,0-.69,21.88-.84,43.31-.01,2.57-.03,5.13-.03,7.65,0,3.55.03,7.43.07,11.43.2,19.6.8,42.09.8,42.09,0,0,0,4.28,2.4,6,1.72,1.2,6.17,1.2,6.17,1.2,0,0,13.55.85,22.3.85,7.39,0,19.05-.85,19.05-.85,0,0,3.77,0,5.13-2.06,1.03-1.37.86-4.64.86-4.64v-19.21c0-3.09,1.2-3.95,6.52-4.64,4.98-.68,6.17,0,7.37,3.09l14.23,36.88s.86,2.58,2.41,3.43c1.55.86,5.49-.17,5.49-.17,0,0,9.09-1.72,19.38-4.98,10.63-3.26,17.85-7.37,17.85-7.37,0,0,3.43-1.72,3.77-3.26.51-1.89-.86-4.81-.86-4.81,0,0-3.6-8.92-6.52-15.61ZM395.15,486.75s-2.24-.17-3.26-1.02c-2.24-1.89-1.72-15.61-.35-16.81,1.03-.86,2.75-1.37,2.75-1.37,0,0,18.01-3.43,18.01,8.07,0,12.52-17.14,11.14-17.14,11.14Z"/>
      <path class="cls-16" d="M579.36,502.89c-2.07-.86-4.64.17-4.64.17,0,0-10.46,2.74-16.13,2.74-10.97,0-24-3.6-24-15.09s11.14-16.13,23.49-16.13c5.84,0,17.5,3.26,17.5,3.26,0,0,2.41,1.03,4.12-.17,2.4-1.72,2.23-20.42,2.23-22.3,0-2.75,0-17.67-2.23-20.42-1.2-1.72-4.81-2.4-4.81-2.4,0,0-10.97-1.89-21.62-1.89-45.45.17-76.33,20.93-76.33,61.23,0,36.37,25.22,60.55,74.28,60.55,12.52,0,25.39-3.25,25.39-3.25,0,0,2.57-.69,3.6-2.24,1.72-2.74,1.89-20.25,1.89-23.32,0-9.78-.34-19.73-2.74-20.76Z"/>
      <path class="cls-17" d="M645.43,490.18c0-19.38-.51-49.4-.51-49.4,0,0,.17-5.33-1.37-6.86-2.06-2.07-4.81-1.9-4.81-1.9,0,0-13.2-.51-20.76-.51s-22.13.51-22.13.51c0,0-2.4-.17-4.62,1.9-1.89,1.89-1.72,6.68-1.72,6.68,0,0-.69,30.03-.69,49.58,0,20.76.69,51.12.69,51.12,0,0-.34,5.15,1.72,6.86s5.66,1.55,5.66,1.55c0,0,12.86.51,21.1.51s20.42-.51,20.42-.51c0,0,3.77,0,5.32-1.89,1.37-1.72,1.2-5.32,1.2-6.69,0,0,.51-30.71.51-50.95Z"/>
      <path class="cls-15" d="M884.39,502.89c-2.06-.86-4.62.17-4.62.17,0,0-10.46,2.74-16.13,2.74-10.97,0-24.02-3.6-24.02-15.09s11.16-16.13,23.51-16.13c5.83,0,17.5,3.26,17.5,3.26,0,0,2.41,1.03,4.13-.17,2.4-1.72,2.23-20.42,2.23-22.3,0-2.75,0-17.67-2.23-20.42-1.2-1.72-4.81-2.4-4.81-2.4,0,0-10.99-1.89-21.62-1.89-45.45.17-76.33,20.93-76.33,61.23,0,36.37,25.22,60.55,74.28,60.55,12.52,0,25.39-3.25,25.39-3.25,0,0,2.57-.69,3.6-2.24,1.72-2.74,1.89-20.25,1.89-23.32,0-9.78-.34-19.73-2.75-20.76Z"/>
      <path class="cls-16" d="M915.8,427.4c-4.3,0-7.2,13.72-10.46,26.58-3.09,12.7-6.18,26.07-6.18,28.65,0,3.26,14.06,7.03,16.98,7.03,2.4,0,7.03-15.78,10.46-28.13,3.43-12.87,6.18-24.37,6.35-28.48,0-2.4-14.06-5.66-17.15-5.66Z"/>
      <path class="cls-17" d="M1030.73,483.15c-7.73-3.43-15.61-6-15.61-9.95,0-3.08,2.91-5.32,10.46-5.32,5.15,0,14.92,3.09,14.92,3.09,0,0,1.89,1.03,3.09.17,2.58-1.89,2.4-16.63,2.4-18.87,0-2.06.18-16.29-2.06-18.01-1.72-1.37-3.77-1.37-3.77-1.37,0,0-15.1-2.23-24.19-2.23-29.67,0-70.16,6.86-70.16,37.56,0,15.44,10.12,23.68,24.54,30.71,10.46,5.15,21.44,6.86,21.44,12.7,0,3.43-4.81,5.15-8.92,5.15-13.38,0-31.05-9.95-31.05-9.95,0,0-3.6-1.37-5.49-.34-3.78,2.06-2.92,14.92-2.92,18.01,0,2.41-.17,16.81,1.72,19.9,1.2,1.89,4.64,3.26,4.64,3.26,0,0,25.55,5.83,45.45,5.83,30.88,0,59.53-14.58,59.53-38.59,0-14.93-9.61-25.39-24.02-31.74Z"/>
      <path class="cls-6" d="M60.39,591.57c-13.1,0-25.56.94-25.56.94,0,0-2.2-.1-2.93.84-.63.73-.52,2.62-.52,2.62,0,0-.52,18.44-.52,31.43s.52,32.69.52,32.69c0,0-.1,2.51,1.26,3.67,1.15.94,3.98.73,3.98.73,0,0,7.44.42,12.26.42s11.63-.42,11.63-.42c0,0,2.41,0,3.05-.84.51-.73.51-2.1.51-3.25v-11.42s-.21-1.89,1.05-2.41c.63-.31,2.1-.21,2.1-.21h11.31c19.29,0,30.29-12.15,30.29-28.18,0-18.54-18.86-26.61-48.41-26.61ZM66.68,626.03s-1.36-.31-1.99-.84c-1.47-1.26-1.14-9.11-.1-9.95.52-.63,1.58-.94,1.58-.94,0,0,11.1-1.68,11.1,5.55,0,7.65-10.59,6.18-10.59,6.18Z"/>
      <path class="cls-6" d="M156.36,591.57c-22.42,0-45.05,14.04-45.05,36.46s21.79,38.03,43.48,38.03,43.59-15.82,43.59-38.34-20.76-36.14-42.02-36.14ZM154.89,637.14c-4.92,0-9.43-3.56-9.43-8.49,0-5.24,4.19-9.43,9.43-9.43s9.74,3.88,9.74,9.11-4.61,8.8-9.74,8.8Z"/>
      <path class="cls-6" d="M263.42,635.88c-1.26-.52-2.83.1-2.83.1,0,0-6.39,1.68-9.85,1.68-6.7,0-14.67-2.2-14.67-9.22s6.81-9.85,14.35-9.85c3.56,0,10.69,1.99,10.69,1.99,0,0,1.47.63,2.51-.1,1.47-1.05,1.36-12.47,1.36-13.62,0-1.68,0-10.79-1.36-12.47-.73-1.05-2.93-1.47-2.93-1.47,0,0-4.94-.85-10.45-1.09-.9-.04-1.83-.07-2.75-.07-3.22.01-6.33.2-9.3.55-22.59,2.66-37.32,15.09-37.32,36.85s15.4,36.98,45.36,36.98c7.65,0,15.5-1.99,15.5-1.99,0,0,1.57-.42,2.2-1.36,1.05-1.68,1.15-12.36,1.15-14.25,0-5.97-.21-12.05-1.68-12.68Z"/>
      <path class="cls-6" d="M352.47,659.77s-4.82-10.16-7.86-16.55c-2.62-5.55-7.02-14.35-7.02-14.35-.42-.84-1.15-2.41-1.15-2.83,0-1.15,1.89-2.62,1.89-2.62,0,0,3.77-3.77,5.76-5.87,2.72-2.83,6.29-6.7,6.29-6.7.73-.73,1.26-1.57,1.26-2.62,0-.94-1.68-2.62-1.68-2.62,0,0-3.98-4.61-9.95-9.11-4.92-3.77-9.53-5.97-9.53-5.97,0,0-1.15-.63-2.3-.63-.94,0-2.93,2.41-2.93,2.41l-13.41,13.51c-1.68,1.68-4.09,3.67-5.24,3.04-1.05-.63-1.36-1.78-1.36-3.04l.1-7.75s.1-3.04-.73-4.09c-1.15-1.47-3.67-1.36-3.67-1.36,0,0-7.12-.42-11.73-.42s-11.73.42-11.73.42c0,0-3.04,0-4.19.73-1.36.84-1.26,3.25-1.26,3.25,0,0-.63,19.8-.63,32.48s.52,31.32.52,31.32c0,0,0,1.78.52,2.83.63,1.26,2.93,1.26,2.93,1.26,0,0,8.38.42,15.09.42,4.5,0,11.52-.31,11.52-.31,0,0,2.62-.1,3.56-1.26.73-.94.84-1.68.84-2.83v-9.43c0-2.83.73-3.04,2.72-4.3,1.26-.84,4.19-1.78,4.92,0,0,0,3.25,7.54,5.24,12.47,1.89,4.61,4.19,10.27,4.19,10.27.52,1.26.84,1.99,1.99,2.51,1.15.52,3.35.1,3.35.1,0,0,5.34-1.15,12.05-3.35,4.92-1.57,10.69-4.61,10.69-4.61,0,0,1.78-.84,1.78-1.99s-.84-2.41-.84-2.41Z"/>
      <path class="cls-6" d="M418.05,641.22c-.84-1.05-2.3-1.05-3.56-1.05h-18.86s-2.72.1-3.25-.42c-.73-.73-.73-4.5,0-5.13.52-.52,3.25-.42,3.25-.42h15.5c1.26,0,3.04-.21,3.77-1.26.84-1.26.52-7.75-.21-8.59-.84-1.05-2.3-1.05-3.56-1.05h-15.61s-2.41.1-2.93-.42c-.84-.84-.73-5.03-.1-5.66.63-.52,3.14-.52,3.14-.52h16.45c1.26,0,3.04-.1,3.77-1.15.73-1.05.52-9.74.52-10.58,0-1.26.1-10.06-.94-11.31-.94-1.15-3.67-1.05-3.67-1.05,0,0-13.72-.63-23.15-.63-10.37,0-26.51.73-26.51.73-1.26,0-2.2.21-2.93,1.26-.63.94-.63,2.83-.63,2.83,0,0-.63,12.99-.63,29.65,0,12.26.73,33.94.73,33.94,0,1.15,0,1.99.63,2.93.73,1.15,2.83,1.15,2.83,1.15,0,0,16.13.73,26.51.73,9.43,0,25.56-.63,25.56-.63,0,0,2.83.1,3.67-1.15,1.05-1.57,1.05-8.8,1.05-10.37,0-1.15.1-10.69-.84-11.84Z"/>
      <path class="cls-6" d="M490.67,593.56c-1.05-1.05-3.77-.94-3.77-.94,0,0-18.75-.42-30.08-.42s-29.54.42-29.54.42c0,0-2.93,0-4.09,1.26-1.36,1.47-1.15,10.06-1.15,11.52,0,1.68-.31,10.27,1.26,11.63,1.05,1.05,3.98,1.26,3.98,1.26h10.16s1.78-.1,2.51.52.63,2.83.63,2.83l-1.05,38.97s-.1,2.1.84,3.04c.73.73,2.93.84,2.93.84,0,0,7.86.21,12.89.21,4.61,0,11.73-.21,11.73-.21,0,0,2.32.1,3.46-1.05,1.15-1.15.94-3.98.94-3.98l-.52-36.77s-.1-3.25.63-3.98c.96-.94,3.16-.73,3.16-.73h11.31s2.72.1,3.77-.94c1.26-1.26,1.15-10.16,1.15-11.63,0-1.57.31-10.37-1.15-11.84Z"/>
      <path class="cls-6" d="M567.24,616.6h17.39s1.99.1,2.83-.94c.94-1.15.63-9.74.63-10.79,0-1.26.1-10.06-.94-11.31-.94-1.05-3.35-1.05-3.35-1.05,0,0-13.83-.42-23.26-.42-10.37,0-26.82.52-26.82.52-1.26,0-2.3.1-3.04,1.15-.73.94-.63,2.93-.63,2.93,0,0-.52,13.41-.52,29.65,0,12.15.73,34.26.73,34.26,0,0,0,2.2.63,3.14.73,1.05,2.83.94,2.83.94,0,0,3.46.42,13.83.42,8.28,0,11.94-.63,11.94-.63,0,0,2.51-.21,3.67-1.15.94-.84.73-2.93.73-2.93l-.31-23.05s-.21-1.68.63-2.51c.73-.73,3.14-.63,3.14-.63l15.4.1s3.04.1,3.67-.73c.94-1.26.63-8.8,0-9.43-1.05-1.05-3.46-.94-3.46-.94h-15.82s-2.41,0-2.93-.52c-.84-.84-.73-4.92,0-5.55.63-.52,3.04-.52,3.04-.52Z"/>
      <path class="cls-6" d="M654.19,641.22c-.84-1.05-2.3-1.05-3.56-1.05h-18.86s-2.72.1-3.25-.42c-.73-.73-.73-4.5,0-5.13.52-.52,3.25-.42,3.25-.42h15.5c1.26,0,3.04-.21,3.77-1.26.84-1.26.52-7.75-.21-8.59-.84-1.05-2.3-1.05-3.56-1.05h-15.61s-2.41.1-2.93-.42c-.84-.84-.73-5.03-.1-5.66.63-.52,3.14-.52,3.14-.52h16.45c1.26,0,3.04-.1,3.77-1.15.73-1.05.52-9.74.52-10.58,0-1.26.1-10.06-.94-11.31-.94-1.15-3.67-1.05-3.67-1.05,0,0-13.72-.63-23.15-.63-10.37,0-26.5.73-26.5.73-1.26,0-2.2.21-2.93,1.26-.63.94-.63,2.83-.63,2.83,0,0-.63,12.99-.63,29.65,0,12.26.73,33.94.73,33.94,0,1.15,0,1.99.63,2.93.73,1.15,2.83,1.15,2.83,1.15,0,0,16.13.73,26.5.73,9.43,0,25.56-.63,25.56-.63,0,0,2.83.1,3.67-1.15,1.05-1.57,1.05-8.8,1.05-10.37,0-1.15.1-10.69-.84-11.84Z"/>
      <path class="cls-6" d="M713.17,623.83c-4.71-2.1-9.53-3.67-9.53-6.08,0-1.89,1.78-3.25,6.39-3.25,3.14,0,9.11,1.89,9.11,1.89,0,0,1.15.63,1.89.1,1.57-1.15,1.47-10.16,1.47-11.52,0-1.26.1-9.95-1.26-11-1.05-.84-2.3-.84-2.3-.84,0,0-9.22-1.36-14.77-1.36-18.12,0-42.85,4.19-42.85,22.94,0,9.43,6.18,14.46,14.98,18.75,6.39,3.14,13.1,4.19,13.1,7.75,0,2.1-2.93,3.14-5.45,3.14-8.17,0-18.96-6.08-18.96-6.08,0,0-2.2-.84-3.35-.21-2.3,1.26-1.78,9.11-1.78,11,0,1.47-.1,10.27,1.05,12.15.73,1.15,2.83,1.99,2.83,1.99,0,0,15.61,3.56,27.76,3.56,18.86,0,36.35-8.9,36.35-23.57,0-9.11-5.87-15.5-14.67-19.38Z"/>
      <path class="cls-6" d="M799.18,593.56c-1.05-1.05-3.77-.94-3.77-.94,0,0-18.75-.42-30.07-.42s-29.54.42-29.54.42c0,0-2.93,0-4.09,1.26-1.36,1.47-1.15,10.06-1.15,11.52,0,1.68-.31,10.27,1.26,11.63,1.05,1.05,3.98,1.26,3.98,1.26h10.16s1.78-.1,2.51.52.63,2.83.63,2.83l-1.05,38.97s-.1,2.1.84,3.04c.73.73,2.93.84,2.93.84,0,0,7.86.21,12.89.21,4.61,0,11.73-.21,11.73-.21,0,0,2.3.1,3.46-1.05s.94-3.98.94-3.98l-.52-36.77s-.1-3.25.63-3.98c.94-.94,3.14-.73,3.14-.73h11.31s2.72.1,3.77-.94c1.26-1.26,1.15-10.16,1.15-11.63,0-1.57.31-10.37-1.15-11.84Z"/>
      <path class="cls-6" d="M839.09,628.13c0-11.84-.31-30.17-.31-30.17,0,0,.1-3.25-.84-4.19-1.26-1.26-2.93-1.15-2.93-1.15,0,0-8.07-.31-12.68-.31s-13.51.31-13.51.31c0,0-1.47-.1-2.83,1.15-1.15,1.15-1.05,4.09-1.05,4.09,0,0-.42,18.33-.42,30.28,0,12.68.42,31.22.42,31.22,0,0-.21,3.14,1.05,4.19,1.26,1.05,3.46.94,3.46.94,0,0,7.86.31,12.89.31s12.47-.31,12.47-.31c0,0,2.3,0,3.25-1.15.84-1.05.73-3.25.73-4.09,0,0,.31-18.75.31-31.11Z"/>
      <path class="cls-6" d="M923.32,594.39c-.84-.73-2.72-1.05-2.72-1.05,0,0-3.14-.73-8.9-1.36-5.76-.63-10.16-.94-10.16-.94,0,0-1.78-.1-2.62.42-.73.52-.84,2.1-.84,2.1,0,0-1.26,8.38-2.41,13.72-1.57,7.23-3.04,12.68-3.04,12.68-.42,1.68-1.15,4.19-2.3,4.19-1.36,0-2.3-2.41-2.83-3.98,0,0-2.93-8.07-4.61-13.2-1.78-5.34-4.3-13.83-4.3-13.83,0,0-.42-1.26-.94-1.68-1.15-.84-3.35-.63-3.35-.63,0,0-9.64.73-13.93,1.47-8.49,1.36-14.98,2.62-14.98,2.62,0,0-1.89.42-2.3,1.26-.63,1.47.1,4.09.1,4.09,0,0,4.71,16.76,9.64,30.8,3.56,10.16,11.84,29.75,11.84,29.75,0,0,.63,1.78,1.47,2.51,1.05.94,3.56,1.15,3.56,1.15,0,0,9.85.42,14.35.42s14.46-.42,14.46-.42c0,0,2.51,0,3.67-1.05,1.15-1.05,1.78-3.14,1.78-3.14,0,0,6.7-18.23,10.48-30.17,4.09-12.89,9.32-32.16,9.32-32.16,0,0,.84-2.51-.42-3.56Z"/>
      <path class="cls-6" d="M1000.95,658.51s-4.5-18.33-9.43-32.37c-4.92-14.04-12.26-29.75-12.26-29.75,0,0-.84-2.1-1.68-2.83-1.05-.94-1.99-.94-3.35-.94,0,0-9.85-.42-14.35-.42s-14.46.42-14.46.42c-1.26,0-2.51.1-3.56.84s-1.36,1.99-1.89,3.35c0,.1-6.39,17.18-10.48,30.28-3.98,12.89-9.32,33.31-9.32,33.31-.42,1.47-.42,2.51.42,3.46.63.73,2.72,1.05,2.72,1.05,0,0,5.97,1.05,9.85,1.57,3.56.42,10.27.84,10.27.84,0,0,1.57.21,2.51-.52,1.15-.94,1.05-5.03,2.41-5.97.84-.52,1.89-.31,1.89-.31,0,0,3.25.84,5.76.84,3.14,0,6.7-.73,6.7-.73,0,0,.94-.21,1.68.42,1.57,1.36,1.26,4.82,3.14,6.29.73.52,1.89.63,3.46.42,0,.1,10.06-.84,14.35-1.36,4.71-.63,13.41-2.51,13.41-2.51.63-.1,1.99-.73,2.41-1.57.63-1.47-.21-3.77-.21-3.77ZM960.72,645.2c-.84,1.36-4.19,1.57-5.45,1.57-1.36,0-4.61-.1-5.45-1.57-.42-.73-.42-1.89,0-3.25l2.1-7.54c.42-1.68,1.15-3.67,2.62-3.67s2.2,1.89,2.72,3.25l3.04,7.54c.73,1.89.94,2.83.42,3.67Z"/>
      <path class="cls-6" d="M1066.64,652.22c0-1.15.1-10.79-1.05-12.05-.84-.94-3.46-.94-3.46-.94,0,0-6.29.21-10.37.21-3.56,0-9.22-.21-9.22-.21,0,0-2.51,0-3.04-.52-.52-.52-.52-2.83-.52-2.83,0,0-.21-11.63-.21-19.07s.21-18.86.21-18.86c0-1.47,0-3.04-.94-3.98-1.26-1.26-2.1-1.36-3.98-1.36,0,0-7.23-.31-11.84-.31s-11.84.31-11.84.31c-1.68,0-2.83,0-3.77.63-1.15.94-.94,3.35-.94,3.35,0,0-.52,18.54-.52,31.22s.42,32.58.42,32.58c0,0,.1,2.2.52,2.83.84,1.26,2.93,1.26,2.93,1.26,0,0,16.13.63,26.51.63,9.43,0,26.5-.52,26.5-.52,0,0,3.04.1,3.88-1.15.84-1.26.73-10.06.73-11.21Z"/>
      <path class="cls-3" d="M60.39,591.57c-13.1,0-25.56.94-25.56.94,0,0-2.2-.1-2.93.84-.63.73-.52,2.62-.52,2.62,0,0-.52,18.44-.52,31.43s.52,32.69.52,32.69c0,0-.1,2.51,1.26,3.67,1.15.94,3.98.73,3.98.73,0,0,7.44.42,12.26.42s11.63-.42,11.63-.42c0,0,2.41,0,3.05-.84.51-.73.51-2.1.51-3.25v-11.42s-.21-1.89,1.05-2.41c.63-.31,2.1-.21,2.1-.21h11.31c19.29,0,30.29-12.15,30.29-28.18,0-18.54-18.86-26.61-48.41-26.61ZM66.68,626.03s-1.36-.31-1.99-.84c-1.47-1.26-1.14-9.11-.1-9.95.52-.63,1.58-.94,1.58-.94,0,0,11.1-1.68,11.1,5.55,0,7.65-10.59,6.18-10.59,6.18Z"/>
      <path class="cls-3" d="M156.36,591.57c-22.42,0-45.05,14.04-45.05,36.46s21.79,38.03,43.48,38.03,43.59-15.82,43.59-38.34-20.76-36.14-42.02-36.14ZM154.89,637.14c-4.92,0-9.43-3.56-9.43-8.49,0-5.24,4.19-9.43,9.43-9.43s9.74,3.88,9.74,9.11-4.61,8.8-9.74,8.8Z"/>
      <path class="cls-3" d="M263.42,635.88c-1.26-.52-2.83.1-2.83.1,0,0-6.39,1.68-9.85,1.68-6.7,0-14.67-2.2-14.67-9.22s6.81-9.85,14.35-9.85c3.56,0,10.69,1.99,10.69,1.99,0,0,1.47.63,2.51-.1,1.47-1.05,1.36-12.47,1.36-13.62,0-1.68,0-10.79-1.36-12.47-.73-1.05-2.93-1.47-2.93-1.47,0,0-4.94-.85-10.45-1.09-.9-.04-1.83-.07-2.75-.07-3.22.01-6.33.2-9.3.55-22.59,2.66-37.32,15.09-37.32,36.85s15.4,36.98,45.36,36.98c7.65,0,15.5-1.99,15.5-1.99,0,0,1.57-.42,2.2-1.36,1.05-1.68,1.15-12.36,1.15-14.25,0-5.97-.21-12.05-1.68-12.68Z"/>
      <path class="cls-3" d="M352.47,659.77s-4.82-10.16-7.86-16.55c-2.62-5.55-7.02-14.35-7.02-14.35-.42-.84-1.15-2.41-1.15-2.83,0-1.15,1.89-2.62,1.89-2.62,0,0,3.77-3.77,5.76-5.87,2.72-2.83,6.29-6.7,6.29-6.7.73-.73,1.26-1.57,1.26-2.62,0-.94-1.68-2.62-1.68-2.62,0,0-3.98-4.61-9.95-9.11-4.92-3.77-9.53-5.97-9.53-5.97,0,0-1.15-.63-2.3-.63-.94,0-2.93,2.41-2.93,2.41l-13.41,13.51c-1.68,1.68-4.09,3.67-5.24,3.04-1.05-.63-1.36-1.78-1.36-3.04l.1-7.75s.1-3.04-.73-4.09c-1.15-1.47-3.67-1.36-3.67-1.36,0,0-7.12-.42-11.73-.42s-11.73.42-11.73.42c0,0-3.04,0-4.19.73-1.36.84-1.26,3.25-1.26,3.25,0,0-.63,19.8-.63,32.48s.52,31.32.52,31.32c0,0,0,1.78.52,2.83.63,1.26,2.93,1.26,2.93,1.26,0,0,8.38.42,15.09.42,4.5,0,11.52-.31,11.52-.31,0,0,2.62-.1,3.56-1.26.73-.94.84-1.68.84-2.83v-9.43c0-2.83.73-3.04,2.72-4.3,1.26-.84,4.19-1.78,4.92,0,0,0,3.25,7.54,5.24,12.47,1.89,4.61,4.19,10.27,4.19,10.27.52,1.26.84,1.99,1.99,2.51,1.15.52,3.35.1,3.35.1,0,0,5.34-1.15,12.05-3.35,4.92-1.57,10.69-4.61,10.69-4.61,0,0,1.78-.84,1.78-1.99s-.84-2.41-.84-2.41Z"/>
      <path class="cls-3" d="M418.05,641.22c-.84-1.05-2.3-1.05-3.56-1.05h-18.86s-2.72.1-3.25-.42c-.73-.73-.73-4.5,0-5.13.52-.52,3.25-.42,3.25-.42h15.5c1.26,0,3.04-.21,3.77-1.26.84-1.26.52-7.75-.21-8.59-.84-1.05-2.3-1.05-3.56-1.05h-15.61s-2.41.1-2.93-.42c-.84-.84-.73-5.03-.1-5.66.63-.52,3.14-.52,3.14-.52h16.45c1.26,0,3.04-.1,3.77-1.15.73-1.05.52-9.74.52-10.58,0-1.26.1-10.06-.94-11.31-.94-1.15-3.67-1.05-3.67-1.05,0,0-13.72-.63-23.15-.63-10.37,0-26.51.73-26.51.73-1.26,0-2.2.21-2.93,1.26-.63.94-.63,2.83-.63,2.83,0,0-.63,12.99-.63,29.65,0,12.26.73,33.94.73,33.94,0,1.15,0,1.99.63,2.93.73,1.15,2.83,1.15,2.83,1.15,0,0,16.13.73,26.51.73,9.43,0,25.56-.63,25.56-.63,0,0,2.83.1,3.67-1.15,1.05-1.57,1.05-8.8,1.05-10.37,0-1.15.1-10.69-.84-11.84Z"/>
      <path class="cls-3" d="M490.67,593.56c-1.05-1.05-3.77-.94-3.77-.94,0,0-18.75-.42-30.08-.42s-29.54.42-29.54.42c0,0-2.93,0-4.09,1.26-1.36,1.47-1.15,10.06-1.15,11.52,0,1.68-.31,10.27,1.26,11.63,1.05,1.05,3.98,1.26,3.98,1.26h10.16s1.78-.1,2.51.52.63,2.83.63,2.83l-1.05,38.97s-.1,2.1.84,3.04c.73.73,2.93.84,2.93.84,0,0,7.86.21,12.89.21,4.61,0,11.73-.21,11.73-.21,0,0,2.32.1,3.46-1.05,1.15-1.15.94-3.98.94-3.98l-.52-36.77s-.1-3.25.63-3.98c.96-.94,3.16-.73,3.16-.73h11.31s2.72.1,3.77-.94c1.26-1.26,1.15-10.16,1.15-11.63,0-1.57.31-10.37-1.15-11.84Z"/>
      <path class="cls-3" d="M567.24,616.6h17.39s1.99.1,2.83-.94c.94-1.15.63-9.74.63-10.79,0-1.26.1-10.06-.94-11.31-.94-1.05-3.35-1.05-3.35-1.05,0,0-13.83-.42-23.26-.42-10.37,0-26.82.52-26.82.52-1.26,0-2.3.1-3.04,1.15-.73.94-.63,2.93-.63,2.93,0,0-.52,13.41-.52,29.65,0,12.15.73,34.26.73,34.26,0,0,0,2.2.63,3.14.73,1.05,2.83.94,2.83.94,0,0,3.46.42,13.83.42,8.28,0,11.94-.63,11.94-.63,0,0,2.51-.21,3.67-1.15.94-.84.73-2.93.73-2.93l-.31-23.05s-.21-1.68.63-2.51c.73-.73,3.14-.63,3.14-.63l15.4.1s3.04.1,3.67-.73c.94-1.26.63-8.8,0-9.43-1.05-1.05-3.46-.94-3.46-.94h-15.82s-2.41,0-2.93-.52c-.84-.84-.73-4.92,0-5.55.63-.52,3.04-.52,3.04-.52Z"/>
      <path class="cls-3" d="M654.19,641.22c-.84-1.05-2.3-1.05-3.56-1.05h-18.86s-2.72.1-3.25-.42c-.73-.73-.73-4.5,0-5.13.52-.52,3.25-.42,3.25-.42h15.5c1.26,0,3.04-.21,3.77-1.26.84-1.26.52-7.75-.21-8.59-.84-1.05-2.3-1.05-3.56-1.05h-15.61s-2.41.1-2.93-.42c-.84-.84-.73-5.03-.1-5.66.63-.52,3.14-.52,3.14-.52h16.45c1.26,0,3.04-.1,3.77-1.15.73-1.05.52-9.74.52-10.58,0-1.26.1-10.06-.94-11.31-.94-1.15-3.67-1.05-3.67-1.05,0,0-13.72-.63-23.15-.63-10.37,0-26.5.73-26.5.73-1.26,0-2.2.21-2.93,1.26-.63.94-.63,2.83-.63,2.83,0,0-.63,12.99-.63,29.65,0,12.26.73,33.94.73,33.94,0,1.15,0,1.99.63,2.93.73,1.15,2.83,1.15,2.83,1.15,0,0,16.13.73,26.5.73,9.43,0,25.56-.63,25.56-.63,0,0,2.83.1,3.67-1.15,1.05-1.57,1.05-8.8,1.05-10.37,0-1.15.1-10.69-.84-11.84Z"/>
      <path class="cls-3" d="M713.17,623.83c-4.71-2.1-9.53-3.67-9.53-6.08,0-1.89,1.78-3.25,6.39-3.25,3.14,0,9.11,1.89,9.11,1.89,0,0,1.15.63,1.89.1,1.57-1.15,1.47-10.16,1.47-11.52,0-1.26.1-9.95-1.26-11-1.05-.84-2.3-.84-2.3-.84,0,0-9.22-1.36-14.77-1.36-18.12,0-42.85,4.19-42.85,22.94,0,9.43,6.18,14.46,14.98,18.75,6.39,3.14,13.1,4.19,13.1,7.75,0,2.1-2.93,3.14-5.45,3.14-8.17,0-18.96-6.08-18.96-6.08,0,0-2.2-.84-3.35-.21-2.3,1.26-1.78,9.11-1.78,11,0,1.47-.1,10.27,1.05,12.15.73,1.15,2.83,1.99,2.83,1.99,0,0,15.61,3.56,27.76,3.56,18.86,0,36.35-8.9,36.35-23.57,0-9.11-5.87-15.5-14.67-19.38Z"/>
      <path class="cls-3" d="M799.18,593.56c-1.05-1.05-3.77-.94-3.77-.94,0,0-18.75-.42-30.07-.42s-29.54.42-29.54.42c0,0-2.93,0-4.09,1.26-1.36,1.47-1.15,10.06-1.15,11.52,0,1.68-.31,10.27,1.26,11.63,1.05,1.05,3.98,1.26,3.98,1.26h10.16s1.78-.1,2.51.52.63,2.83.63,2.83l-1.05,38.97s-.1,2.1.84,3.04c.73.73,2.93.84,2.93.84,0,0,7.86.21,12.89.21,4.61,0,11.73-.21,11.73-.21,0,0,2.3.1,3.46-1.05s.94-3.98.94-3.98l-.52-36.77s-.1-3.25.63-3.98c.94-.94,3.14-.73,3.14-.73h11.31s2.72.1,3.77-.94c1.26-1.26,1.15-10.16,1.15-11.63,0-1.57.31-10.37-1.15-11.84Z"/>
      <path class="cls-3" d="M839.09,628.13c0-11.84-.31-30.17-.31-30.17,0,0,.1-3.25-.84-4.19-1.26-1.26-2.93-1.15-2.93-1.15,0,0-8.07-.31-12.68-.31s-13.51.31-13.51.31c0,0-1.47-.1-2.83,1.15-1.15,1.15-1.05,4.09-1.05,4.09,0,0-.42,18.33-.42,30.28,0,12.68.42,31.22.42,31.22,0,0-.21,3.14,1.05,4.19,1.26,1.05,3.46.94,3.46.94,0,0,7.86.31,12.89.31s12.47-.31,12.47-.31c0,0,2.3,0,3.25-1.15.84-1.05.73-3.25.73-4.09,0,0,.31-18.75.31-31.11Z"/>
      <path class="cls-3" d="M923.32,594.39c-.84-.73-2.72-1.05-2.72-1.05,0,0-3.14-.73-8.9-1.36-5.76-.63-10.16-.94-10.16-.94,0,0-1.78-.1-2.62.42-.73.52-.84,2.1-.84,2.1,0,0-1.26,8.38-2.41,13.72-1.57,7.23-3.04,12.68-3.04,12.68-.42,1.68-1.15,4.19-2.3,4.19-1.36,0-2.3-2.41-2.83-3.98,0,0-2.93-8.07-4.61-13.2-1.78-5.34-4.3-13.83-4.3-13.83,0,0-.42-1.26-.94-1.68-1.15-.84-3.35-.63-3.35-.63,0,0-9.64.73-13.93,1.47-8.49,1.36-14.98,2.62-14.98,2.62,0,0-1.89.42-2.3,1.26-.63,1.47.1,4.09.1,4.09,0,0,4.71,16.76,9.64,30.8,3.56,10.16,11.84,29.75,11.84,29.75,0,0,.63,1.78,1.47,2.51,1.05.94,3.56,1.15,3.56,1.15,0,0,9.85.42,14.35.42s14.46-.42,14.46-.42c0,0,2.51,0,3.67-1.05,1.15-1.05,1.78-3.14,1.78-3.14,0,0,6.7-18.23,10.48-30.17,4.09-12.89,9.32-32.16,9.32-32.16,0,0,.84-2.51-.42-3.56Z"/>
      <path class="cls-3" d="M1000.95,658.51s-4.5-18.33-9.43-32.37c-4.92-14.04-12.26-29.75-12.26-29.75,0,0-.84-2.1-1.68-2.83-1.05-.94-1.99-.94-3.35-.94,0,0-9.85-.42-14.35-.42s-14.46.42-14.46.42c-1.26,0-2.51.1-3.56.84s-1.36,1.99-1.89,3.35c0,.1-6.39,17.18-10.48,30.28-3.98,12.89-9.32,33.31-9.32,33.31-.42,1.47-.42,2.51.42,3.46.63.73,2.72,1.05,2.72,1.05,0,0,5.97,1.05,9.85,1.57,3.56.42,10.27.84,10.27.84,0,0,1.57.21,2.51-.52,1.15-.94,1.05-5.03,2.41-5.97.84-.52,1.89-.31,1.89-.31,0,0,3.25.84,5.76.84,3.14,0,6.7-.73,6.7-.73,0,0,.94-.21,1.68.42,1.57,1.36,1.26,4.82,3.14,6.29.73.52,1.89.63,3.46.42,0,.1,10.06-.84,14.35-1.36,4.71-.63,13.41-2.51,13.41-2.51.63-.1,1.99-.73,2.41-1.57.63-1.47-.21-3.77-.21-3.77ZM960.72,645.2c-.84,1.36-4.19,1.57-5.45,1.57-1.36,0-4.61-.1-5.45-1.57-.42-.73-.42-1.89,0-3.25l2.1-7.54c.42-1.68,1.15-3.67,2.62-3.67s2.2,1.89,2.72,3.25l3.04,7.54c.73,1.89.94,2.83.42,3.67Z"/>
      <path class="cls-3" d="M1066.64,652.22c0-1.15.1-10.79-1.05-12.05-.84-.94-3.46-.94-3.46-.94,0,0-6.29.21-10.37.21-3.56,0-9.22-.21-9.22-.21,0,0-2.51,0-3.04-.52-.52-.52-.52-2.83-.52-2.83,0,0-.21-11.63-.21-19.07s.21-18.86.21-18.86c0-1.47,0-3.04-.94-3.98-1.26-1.26-2.1-1.36-3.98-1.36,0,0-7.23-.31-11.84-.31s-11.84.31-11.84.31c-1.68,0-2.83,0-3.77.63-1.15.94-.94,3.35-.94,3.35,0,0-.52,18.54-.52,31.22s.42,32.58.42,32.58c0,0,.1,2.2.52,2.83.84,1.26,2.93,1.26,2.93,1.26,0,0,16.13.63,26.51.63,9.43,0,26.5-.52,26.5-.52,0,0,3.04.1,3.88-1.15.84-1.26.73-10.06.73-11.21Z"/>
    </g>
    <g>
      <rect class="cls-12" x="232.94" y="484.65" width="21.88" height="26.39"/>
      <path class="cls-10" d="M287.83,486.38s12.84,8.04,14.65,12.19-9.2,9.22-9.2,9.22"/>
      <path class="cls-4" d="M230.65,483.78s-10.85,6.6-5.59,20.89"/>
      <path class="cls-2" d="M251.92,494.22c-.67,2-1.64,4.38-3.1,6.93-1.28,2.24-2.63,4.09-3.86,5.57-1.16,1.06-2.1,1.26-2.68,1.24-3.21-.1-5.8-5.7-6.94-10.65h0v-.03c-.18-.8-.33-1.57-.43-2.3-.3-2.23-.25-4.22-.08-5.79.1-1.01.85-1.83,1.83-2.04,1.94-.42,4.3-.76,6.98-.77,2.85-.03,5.36.31,7.4.75,1.2.26,2.02,1.41,1.83,2.63-.24,1.61-.56,3.09-.96,4.45M245.6,519.42c16.24,3.11,44.81-8.28,47.82-9.51-.2-1.05-.46-3.2-.52-3.61-1.19-7.9-2.95-14.47-5.07-19.92-11.18-28.78-32.38-26.49-32.38-26.49,0,0-15.68,2.54-24.8,23.89-2.59,6.09-4.66,13.7-5.67,23.23h0c1.09,1.83,2.96,4.5,5.98,6.91,3.39,2.7,6.99,4.06,10.24,4.79,1.57.35,3.05.56,4.4.71"/>
      <path class="cls-1" d="M278.49,503.76c-2.03,5.26-6.63,8.46-10.41,8.11-4.7-.45-8.89-5.81-8.17-13.5.71-7.6,5.79-13.38,10.44-13.11-2.84.09-5.29,5.19-5.53,11.51-.25,6.47,2.13,10.8,4.83,11.9,3.25,1.34,7.03-.96,8.84-4.91Z"/>
      <path class="cls-8" d="M279.53,498.17v.03c0,.46-.01.92-.07,1.37-.13,1.39-.43,2.68-.86,3.88-.03.1-.08.21-.12.31-1.81,3.95-5.59,6.25-8.84,4.91-2.7-1.1-5.08-5.43-4.83-11.9.24-6.33,2.68-11.42,5.53-11.51.05,0,.12.01.17.01.52.05,1.03.17,1.56.35,3.89,1.37,7.5,6.35,7.46,12.55Z"/>
      <path class="cls-18" d="M279.53,498.17v.03c.09,1.91-.26,3.71-.93,5.25-.03.1-.08.21-.12.31-1.81,3.95-5.59,6.25-8.84,4.91-2.7-1.1-5.08-5.43-4.83-11.9.24-6.33,2.68-11.42,5.53-11.51h.17c.5.01,1.02.14,1.56.37,3.48,1.44,7.2,6.94,7.46,12.55Z"/>
      <path class="cls-9" d="M234.9,494.99c.1.73.25,1.51.43,2.3.08-.42,3.88-4.98,3.88-4.98l1.85,4.77c.58-.75,3.81-3.88,3.81-3.88l.8,4.05,3.78-3.47,1.18,4.1"/>
      <path class="cls-7" d="M235.34,497.32h0"/>
    </g>
    <path class="cls-18" d="M782.43,538.88s-7.21-29.34-15.09-51.81c-7.88-22.47-19.62-47.62-19.62-47.62,0,0-1.34-3.35-2.68-4.53-1.68-1.51-3.19-1.51-5.37-1.51,0,0-15.76-.67-22.97-.67s-23.14.67-23.14.67c-2.01,0-4.02.17-5.7,1.34s-2.18,3.19-3.02,5.37c0,.17-10.23,27.5-16.77,48.46-6.37,20.62-14.92,53.32-14.92,53.32-.67,2.35-.67,4.02.67,5.53,1.01,1.17,4.36,1.68,4.36,1.68,0,0,9.56,1.68,15.76,2.52,5.7.67,16.43,1.34,16.43,1.34,0,0,2.52.34,4.02-.84,1.84-1.51,1.68-8.05,3.86-9.56,1.34-.84,3.02-.5,3.02-.5,0,0,5.2,1.34,9.22,1.34,5.03,0,10.73-1.17,10.73-1.17,0,0,1.51-.34,2.68.67,2.52,2.18,2.01,7.71,5.03,10.06,1.17.84,3.02,1.01,5.53.67,0,.17,16.1-1.34,22.97-2.18,7.55-1.01,21.46-4.02,21.46-4.02,1.01-.17,3.19-1.17,3.86-2.52,1.01-2.35-.34-6.04-.34-6.04ZM718.04,517.58c-1.34,2.18-6.71,2.52-8.72,2.52-2.18,0-7.38-.17-8.72-2.52-.67-1.17-.67-3.02,0-5.2l3.35-12.07c.67-2.68,1.84-5.87,4.19-5.87s3.52,3.02,4.36,5.2l4.86,12.07c1.17,3.02,1.51,4.53.67,5.87Z"/>
  </g>
</svg>