<?xml version="1.0" encoding="UTF-8"?>
<!DOCTYPE svg PUBLIC "-//W3C//DTD SVG 1.1//EN" "http://www.w3.org/Graphics/SVG/1.1/DTD/svg11.dtd">
<!-- Creator: CorelDRAW -->
<svg xmlns="http://www.w3.org/2000/svg" xml:space="preserve" width="512px" height="512px" version="1.1" style="shape-rendering:geometricPrecision; text-rendering:geometricPrecision; image-rendering:optimizeQuality; fill-rule:evenodd; clip-rule:evenodd"
viewBox="0 0 512 512"
 xmlns:xlink="http://www.w3.org/1999/xlink">
 <defs>
  <style type="text/css">
   <![CDATA[
    .fil0 {fill:black}
   ]]>
  </style>
 </defs>
 <g id="Layer_x0020_1">
  <metadata id="CorelCorpID_0Corel-Layer"/>
  <g id="_585562792">
   <g>
    <path class="fil0" d="M256 512c-68,0 -132,-27 -181,-75 -48,-49 -75,-113 -75,-181 0,-68 27,-133 75,-181 49,-48 113,-75 181,-75 69,0 133,27 181,75 48,48 75,112 75,181 0,68 -27,132 -75,181 -48,48 -112,75 -181,75zm0 -498c-133,0 -242,109 -242,242 0,133 109,242 242,242 133,0 242,-109 242,-242 0,-133 -109,-242 -242,-242z"/>
   </g>
   <g>
    <path class="fil0" d="M256 379c-68,0 -123,-55 -123,-123 0,-68 55,-123 123,-123 68,0 123,55 123,123 0,68 -55,123 -123,123zm0 -232c-60,0 -109,49 -109,109 0,60 49,109 109,109 60,0 109,-49 109,-109 0,-60 -49,-109 -109,-109z"/>
   </g>
   <g>
    <path class="fil0" d="M275 284c-12,0 -24,-5 -33,-14 -8,-9 -13,-20 -13,-33 0,-13 5,-24 13,-33 9,-9 21,-14 33,-14 26,0 47,21 47,47 0,26 -21,47 -47,47zm0 -80c-18,0 -32,14 -32,33 0,18 14,33 32,33 18,0 33,-15 33,-33 0,-18 -15,-33 -33,-33z"/>
   </g>
   <g>
    <path class="fil0" d="M272 93c-1,0 -2,0 -3,-1 -4,-2 -5,-6 -3,-9l9 -18 -23 -16c-2,-2 -3,-4 -3,-6l0 -36c0,-4 3,-7 7,-7 4,0 7,3 7,7l0 32 25 18c3,2 4,6 2,9l-12 23c-1,3 -3,4 -6,4z"/>
   </g>
   <g>
    <path class="fil0" d="M450 240c0,0 -1,0 -1,0l-25 -5c-4,-1 -7,-5 -6,-8 1,-4 5,-7 8,-6l20 4 9 -26c1,-3 3,-4 5,-5l35 -9c4,-1 8,2 9,5 1,4 -2,8 -5,9l-32 8 -10 28c-1,3 -4,5 -7,5z"/>
   </g>
   <g>
    <path class="fil0" d="M381 479c-2,0 -5,-1 -6,-3l-17 -29 -30 -3c-3,0 -6,-3 -6,-6l-2 -25c0,-4 3,-8 7,-8 3,0 7,3 7,6l2 20 27 2c2,0 4,2 5,3l19 32c2,4 1,8 -2,10 -1,1 -3,1 -4,1z"/>
   </g>
   <g>
    <path class="fil0" d="M80 439c-2,0 -4,-1 -5,-2 -3,-3 -3,-7 0,-10l24 -23 -6 -30c0,-3 2,-7 5,-8l24 -8c4,-1 8,1 9,5 1,3 -1,7 -5,9l-18 6 5 27c1,2 0,4 -2,6l-26 26c-1,1 -3,2 -5,2z"/>
   </g>
   <g>
    <path class="fil0" d="M117 164c-2,0 -5,-1 -6,-3l-11 -17 -25 12c-2,1 -5,1 -7,0l-32 -19c-3,-2 -4,-6 -2,-10 2,-3 6,-4 10,-2l28 17 28 -13c3,-2 7,-1 9,2l14 22c2,4 1,8 -2,10 -1,1 -3,1 -4,1z"/>
   </g>
   <g>
    <path class="fil0" d="M168 122c0,0 -1,0 -1,0 -4,-1 -6,-4 -6,-8l6 -45 -41 -21c-4,-2 -5,-6 -3,-9 2,-4 6,-5 9,-3l45 23c3,1 4,4 4,7l-6 50c0,3 -3,6 -7,6z"/>
   </g>
   <g>
    <path class="fil0" d="M370 141c-3,0 -6,-3 -7,-6 0,-4 2,-7 6,-8l44 -5 10 -45c1,-4 5,-7 9,-6 3,1 6,5 5,9l-11 50c-1,2 -3,5 -6,5l-49 6c0,0 -1,0 -1,0z"/>
   </g>
   <g>
    <path class="fil0" d="M422 387c-3,0 -5,-2 -6,-4l-19 -46c-2,-4 0,-8 3,-9 4,-2 8,0 9,3l18 42 46 -2c4,0 7,3 7,7 0,4 -3,7 -7,7l-51 2c0,0 0,0 0,0z"/>
   </g>
   <g>
    <path class="fil0" d="M195 504c-3,0 -6,-2 -7,-5l-16 -49c-1,-3 0,-6 3,-8l40 -30c3,-2 7,-1 10,2 2,3 1,7 -2,10l-36 27 15 44c1,3 -1,7 -5,9 0,0 -1,0 -2,0z"/>
   </g>
   <g>
    <path class="fil0" d="M90 269c-1,0 -3,-1 -4,-1l-36 -27 -39 24c-4,2 -8,1 -10,-2 -2,-4 -1,-8 2,-10l43 -27c3,-2 6,-1 8,0l40 30c3,3 4,7 2,10 -2,2 -4,3 -6,3z"/>
   </g>
  </g>
 </g>
</svg>
